<?xml version="1.0" encoding="UTF-8" standalone="no"?>
<!-- Created with Inkscape (http://www.inkscape.org/) -->

<svg
   xmlns:dc="http://purl.org/dc/elements/1.1/"
   xmlns:cc="http://creativecommons.org/ns#"
   xmlns:rdf="http://www.w3.org/1999/02/22-rdf-syntax-ns#"
   xmlns:svg="http://www.w3.org/2000/svg"
   xmlns="http://www.w3.org/2000/svg"
   xmlns:sodipodi="http://sodipodi.sourceforge.net/DTD/sodipodi-0.dtd"
   xmlns:inkscape="http://www.inkscape.org/namespaces/inkscape"
   version="1.1"
   id="svg2501"
   xml:space="preserve"
   width="880"
   height="880"
   viewBox="0 0 880 880"
   sodipodi:docname="sphinx-freesvg.org.svg"
   inkscape:version="0.92.4 (5da689c313, 2019-01-14)"><metadata
     id="metadata2507"><rdf:RDF><cc:Work
         rdf:about=""><dc:format>image/svg+xml</dc:format><dc:type
           rdf:resource="http://purl.org/dc/dcmitype/StillImage" /><dc:title></dc:title></cc:Work></rdf:RDF></metadata><defs
     id="defs2505"><clipPath
       clipPathUnits="userSpaceOnUse"
       id="clipPath2517"><path
         d="M 0,660 H 660 V 0 H 0 Z"
         id="path2515"
         inkscape:connector-curvature="0" /></clipPath></defs><sodipodi:namedview
     pagecolor="#ffffff"
     bordercolor="#666666"
     borderopacity="1"
     objecttolerance="10"
     gridtolerance="10"
     guidetolerance="10"
     inkscape:pageopacity="0"
     inkscape:pageshadow="2"
     inkscape:window-width="1920"
     inkscape:window-height="1018"
     id="namedview2503"
     showgrid="false"
     inkscape:zoom="0.67362829"
     inkscape:cx="596.61017"
     inkscape:cy="402.71186"
     inkscape:window-x="-8"
     inkscape:window-y="-8"
     inkscape:window-maximized="1"
     inkscape:current-layer="g2509" /><g
     id="g2509"
     inkscape:groupmode="layer"
     inkscape:label="sphinx-freesvg.org"
     transform="matrix(1.3333333,0,0,-1.3333333,0,880)"><g
       id="g3301"><path
         inkscape:connector-curvature="0"
         id="path2519"
         style="fill:#231f20;fill-opacity:1;fill-rule:nonzero;stroke:none"
         d="m 31.141,-25.146 h 3.677 c 1.135,0 2.026,0.106 2.672,0.318 0.646,0.212 1.161,0.51 1.545,0.893 0.54,0.541 0.961,1.269 1.262,2.182 0.302,0.914 0.453,2.022 0.453,3.322 0,1.804 -0.295,3.19 -0.887,4.159 -0.591,0.967 -1.31,1.617 -2.155,1.946 -0.612,0.235 -1.594,0.352 -2.949,0.352 h -3.618 z m -2.282,-2.031 v 17.235 h 5.932 c 1.338,0 2.36,-0.082 3.065,-0.247 0.986,-0.228 1.828,-0.639 2.525,-1.235 0.908,-0.767 1.587,-1.749 2.037,-2.944 0.451,-1.195 0.676,-2.562 0.676,-4.098 0,-1.308 -0.153,-2.469 -0.458,-3.479 -0.305,-1.011 -0.697,-1.848 -1.175,-2.51 -0.477,-0.663 -1,-1.184 -1.568,-1.564 -0.567,-0.38 -1.252,-0.668 -2.055,-0.864 -0.802,-0.196 -1.724,-0.294 -2.766,-0.294 z" /><path
         inkscape:connector-curvature="0"
         id="path2521"
         style="fill:#231f20;fill-opacity:1;fill-rule:nonzero;stroke:none"
         d="m 47.546,-19.739 h 6.969 c -0.094,1.052 -0.36,1.842 -0.799,2.368 -0.674,0.817 -1.548,1.225 -2.621,1.225 -0.971,0 -1.788,-0.326 -2.45,-0.978 -0.662,-0.651 -1.028,-1.523 -1.099,-2.615 m 6.946,-3.407 2.187,-0.281 c -0.345,-1.277 -0.983,-2.268 -1.915,-2.973 -0.931,-0.705 -2.122,-1.058 -3.571,-1.058 -1.824,0 -3.272,0.562 -4.34,1.687 -1.069,1.124 -1.603,2.701 -1.603,4.731 0,2.1 0.54,3.729 1.621,4.889 1.08,1.16 2.482,1.74 4.205,1.74 1.668,0 3.03,-0.568 4.088,-1.704 1.057,-1.136 1.586,-2.735 1.586,-4.794 0,-0.126 -0.004,-0.315 -0.012,-0.565 h -9.317 c 0.079,-1.373 0.467,-2.425 1.165,-3.155 0.698,-0.729 1.569,-1.095 2.612,-1.095 0.776,0 1.439,0.205 1.988,0.616 0.549,0.41 0.984,1.064 1.306,1.962" /><path
         inkscape:connector-curvature="0"
         id="path2523"
         style="fill:#231f20;fill-opacity:1;fill-rule:nonzero;stroke:none"
         d="m 58.489,-23.442 2.094,0.328 c 0.118,-0.842 0.445,-1.489 0.983,-1.937 0.538,-0.448 1.289,-0.673 2.254,-0.673 0.973,0 1.695,0.199 2.166,0.595 0.471,0.397 0.706,0.861 0.706,1.396 0,0.479 -0.207,0.855 -0.62,1.13 -0.289,0.189 -1.01,0.428 -2.163,0.719 -1.554,0.392 -2.631,0.731 -3.231,1.016 -0.6,0.286 -1.055,0.681 -1.365,1.187 -0.31,0.505 -0.464,1.063 -0.464,1.674 0,0.557 0.127,1.071 0.382,1.545 0.254,0.475 0.602,0.868 1.04,1.182 0.329,0.242 0.778,0.448 1.347,0.616 0.568,0.169 1.177,0.253 1.828,0.253 0.979,0 1.84,-0.141 2.58,-0.423 0.741,-0.282 1.288,-0.664 1.641,-1.145 0.352,-0.482 0.595,-1.125 0.729,-1.932 l -2.063,-0.281 c -0.094,0.642 -0.367,1.144 -0.818,1.505 -0.451,0.361 -1.089,0.541 -1.912,0.541 -0.974,0 -1.668,-0.161 -2.084,-0.483 -0.416,-0.321 -0.623,-0.698 -0.623,-1.13 0,-0.275 0.086,-0.523 0.259,-0.742 0.172,-0.228 0.443,-0.417 0.811,-0.566 0.212,-0.079 0.836,-0.259 1.872,-0.541 1.498,-0.401 2.543,-0.728 3.133,-0.982 0.59,-0.255 1.053,-0.625 1.389,-1.11 0.336,-0.487 0.504,-1.089 0.504,-1.81 0,-0.705 -0.206,-1.369 -0.617,-1.992 -0.412,-0.622 -1.006,-1.104 -1.783,-1.445 -0.776,-0.341 -1.654,-0.511 -2.634,-0.511 -1.623,0 -2.861,0.338 -3.711,1.013 -0.852,0.674 -1.395,1.675 -1.63,3.003" /><path
         inkscape:connector-curvature="0"
         id="path2525"
         style="fill:#231f20;fill-opacity:1;fill-rule:nonzero;stroke:none"
         d="m 71.378,-14.692 h 2.109 v -12.484 h -2.109 z m 0,4.75 h 2.109 v -2.438 h -2.109 z" /><path
         inkscape:connector-curvature="0"
         id="path2527"
         style="fill:#231f20;fill-opacity:1;fill-rule:nonzero;stroke:none"
         d="m 78.078,-20.712 c 0,-1.639 0.325,-2.834 0.974,-3.586 0.65,-0.753 1.464,-1.129 2.442,-1.129 0.97,0 1.784,0.374 2.442,1.123 0.657,0.748 0.985,1.922 0.985,3.522 0,1.528 -0.338,2.68 -1.015,3.457 -0.677,0.775 -1.492,1.164 -2.448,1.164 -0.938,0 -1.737,-0.383 -2.394,-1.147 -0.657,-0.764 -0.986,-1.899 -0.986,-3.404 m -1.75,-7.496 2.062,-0.313 c 0.086,-0.632 0.325,-1.093 0.716,-1.382 0.524,-0.391 1.24,-0.586 2.147,-0.586 0.978,0 1.733,0.196 2.265,0.588 0.531,0.392 0.892,0.941 1.079,1.647 0.11,0.432 0.16,1.337 0.153,2.718 -0.924,-1.094 -2.075,-1.641 -3.453,-1.641 -1.715,0 -3.043,0.619 -3.982,1.858 -0.94,1.238 -1.409,2.722 -1.409,4.455 0,1.191 0.216,2.29 0.646,3.297 0.431,1.006 1.056,1.785 1.874,2.333 0.819,0.548 1.78,0.823 2.885,0.823 1.472,0 2.687,-0.594 3.642,-1.781 v 1.5 h 1.953 v -10.789 c 0,-1.944 -0.198,-3.321 -0.593,-4.131 -0.396,-0.811 -1.023,-1.451 -1.881,-1.922 -0.858,-0.47 -1.914,-0.705 -3.168,-0.705 -1.488,0 -2.691,0.335 -3.608,1.005 -0.917,0.67 -1.36,1.678 -1.328,3.026" /><path
         inkscape:connector-curvature="0"
         id="path2529"
         style="fill:#231f20;fill-opacity:1;fill-rule:nonzero;stroke:none"
         d="m 90.104,-27.177 v 12.485 h 1.89 v -1.775 c 0.916,1.37 2.24,2.056 3.97,2.056 0.752,0 1.444,-0.135 2.074,-0.405 0.63,-0.271 1.102,-0.625 1.415,-1.065 0.313,-0.438 0.533,-0.96 0.658,-1.563 0.078,-0.392 0.118,-1.077 0.118,-2.057 v -7.676 h -2.11 v 7.598 c 0,0.862 -0.082,1.507 -0.246,1.934 -0.165,0.427 -0.456,0.769 -0.875,1.023 -0.419,0.256 -0.911,0.383 -1.474,0.383 -0.9,0 -1.677,-0.286 -2.331,-0.859 -0.653,-0.572 -0.98,-1.658 -0.98,-3.257 v -6.822 z" /><path
         inkscape:connector-curvature="0"
         id="path2531"
         style="fill:#231f20;fill-opacity:1;fill-rule:nonzero;stroke:none"
         d="m 105.062,-19.739 h 6.969 c -0.094,1.052 -0.361,1.842 -0.799,2.368 -0.674,0.817 -1.548,1.225 -2.621,1.225 -0.972,0 -1.788,-0.326 -2.45,-0.978 -0.662,-0.651 -1.029,-1.523 -1.099,-2.615 m 6.945,-3.407 2.188,-0.281 c -0.345,-1.277 -0.984,-2.268 -1.915,-2.973 -0.932,-0.705 -2.122,-1.058 -3.571,-1.058 -1.825,0 -3.272,0.562 -4.34,1.687 -1.07,1.124 -1.604,2.701 -1.604,4.731 0,2.1 0.54,3.729 1.621,4.889 1.081,1.16 2.483,1.74 4.205,1.74 1.668,0 3.031,-0.568 4.088,-1.704 1.057,-1.136 1.586,-2.735 1.586,-4.794 0,-0.126 -0.004,-0.315 -0.012,-0.565 h -9.316 c 0.078,-1.373 0.467,-2.425 1.165,-3.155 0.697,-0.729 1.568,-1.095 2.611,-1.095 0.777,0 1.439,0.205 1.989,0.616 0.548,0.41 0.984,1.064 1.305,1.962" /><path
         inkscape:connector-curvature="0"
         id="path2533"
         style="fill:#231f20;fill-opacity:1;fill-rule:nonzero;stroke:none"
         d="m 118.255,-20.948 c 0,-1.6 0.337,-2.795 1.01,-3.588 0.674,-0.791 1.469,-1.188 2.385,-1.188 0.924,0 1.709,0.378 2.355,1.135 0.646,0.757 0.969,1.911 0.969,3.464 0,1.71 -0.329,2.964 -0.987,3.765 -0.657,0.798 -1.468,1.199 -2.431,1.199 -0.94,0 -1.724,-0.385 -2.355,-1.152 -0.63,-0.77 -0.946,-1.981 -0.946,-3.635 m 6.688,-6.229 v 1.571 c -0.791,-1.235 -1.955,-1.852 -3.49,-1.852 -0.995,0 -1.91,0.274 -2.744,0.822 -0.834,0.549 -1.48,1.315 -1.938,2.299 -0.458,0.983 -0.688,2.113 -0.688,3.391 0,1.246 0.208,2.376 0.624,3.39 0.415,1.015 1.037,1.793 1.868,2.334 0.83,0.54 1.758,0.811 2.784,0.811 0.752,0 1.422,-0.158 2.01,-0.476 0.587,-0.317 1.065,-0.73 1.433,-1.239 v 6.184 h 2.11 v -17.235 z" /><path
         inkscape:connector-curvature="0"
         id="path2535"
         style="fill:#231f20;fill-opacity:1;fill-rule:nonzero;stroke:none"
         d="m 144.882,-20.911 c -0.767,-0.314 -1.918,-0.58 -3.451,-0.799 -0.869,-0.126 -1.484,-0.268 -1.844,-0.424 -0.36,-0.156 -0.637,-0.386 -0.833,-0.687 -0.196,-0.302 -0.294,-0.637 -0.294,-1.006 0,-0.565 0.213,-1.034 0.639,-1.41 0.426,-0.377 1.049,-0.565 1.869,-0.565 0.813,0 1.535,0.178 2.168,0.535 0.633,0.357 1.098,0.844 1.395,1.463 0.226,0.479 0.34,1.184 0.34,2.117 z m 0.172,-4.719 c -0.786,-0.668 -1.541,-1.141 -2.263,-1.415 -0.723,-0.275 -1.499,-0.413 -2.327,-0.413 -1.367,0 -2.418,0.335 -3.152,1.005 -0.734,0.67 -1.102,1.526 -1.102,2.567 0,0.612 0.139,1.17 0.416,1.675 0.278,0.506 0.641,0.911 1.09,1.217 0.45,0.306 0.955,0.536 1.518,0.693 0.414,0.11 1.039,0.216 1.875,0.318 1.703,0.203 2.957,0.446 3.762,0.728 0.007,0.29 0.011,0.475 0.011,0.553 0,0.863 -0.199,1.471 -0.598,1.823 -0.539,0.479 -1.341,0.718 -2.404,0.718 -0.992,0 -1.725,-0.175 -2.198,-0.524 -0.474,-0.348 -0.823,-0.965 -1.05,-1.851 l -2.062,0.281 c 0.188,0.886 0.497,1.601 0.928,2.146 0.43,0.544 1.052,0.963 1.867,1.256 0.814,0.295 1.758,0.442 2.831,0.442 1.064,0 1.929,-0.125 2.596,-0.376 0.665,-0.251 1.154,-0.567 1.467,-0.946 0.314,-0.38 0.533,-0.861 0.658,-1.44 0.071,-0.361 0.106,-1.012 0.106,-1.951 v -2.822 c 0,-1.967 0.045,-3.211 0.136,-3.733 0.09,-0.52 0.268,-1.019 0.536,-1.498 h -2.203 c -0.227,0.442 -0.373,0.957 -0.438,1.547" /><path
         inkscape:connector-curvature="0"
         id="path2537"
         style="fill:#231f20;fill-opacity:1;fill-rule:nonzero;stroke:none"
         d="m 150.31,-27.177 v 12.485 h 1.89 v -1.775 c 0.916,1.37 2.24,2.056 3.97,2.056 0.752,0 1.444,-0.135 2.074,-0.405 0.631,-0.271 1.102,-0.625 1.415,-1.065 0.313,-0.438 0.533,-0.96 0.658,-1.563 0.078,-0.392 0.118,-1.077 0.118,-2.057 v -7.676 h -2.11 v 7.598 c 0,0.862 -0.082,1.507 -0.246,1.934 -0.165,0.427 -0.456,0.769 -0.875,1.023 -0.419,0.256 -0.911,0.383 -1.474,0.383 -0.9,0 -1.677,-0.286 -2.331,-0.859 -0.653,-0.572 -0.98,-1.658 -0.98,-3.257 v -6.822 z" /><path
         inkscape:connector-curvature="0"
         id="path2539"
         style="fill:#231f20;fill-opacity:1;fill-rule:nonzero;stroke:none"
         d="m 165.081,-20.948 c 0,-1.6 0.336,-2.795 1.009,-3.588 0.674,-0.791 1.469,-1.188 2.385,-1.188 0.924,0 1.709,0.378 2.356,1.135 0.645,0.757 0.968,1.911 0.968,3.464 0,1.71 -0.329,2.964 -0.986,3.765 -0.658,0.798 -1.469,1.199 -2.432,1.199 -0.94,0 -1.724,-0.385 -2.355,-1.152 -0.63,-0.77 -0.945,-1.981 -0.945,-3.635 m 6.687,-6.229 v 1.571 c -0.791,-1.235 -1.955,-1.852 -3.49,-1.852 -0.994,0 -1.909,0.274 -2.743,0.822 -0.834,0.549 -1.481,1.315 -1.939,2.299 -0.458,0.983 -0.687,2.113 -0.687,3.391 0,1.246 0.207,2.376 0.623,3.39 0.415,1.015 1.037,1.793 1.868,2.334 0.83,0.54 1.758,0.811 2.785,0.811 0.752,0 1.421,-0.158 2.009,-0.476 0.587,-0.317 1.065,-0.73 1.433,-1.239 v 6.184 h 2.11 v -17.235 z" /><path
         inkscape:connector-curvature="0"
         id="path2541"
         style="fill:#231f20;fill-opacity:1;fill-rule:nonzero;stroke:none"
         d="m 183.724,-27.177 v 12.485 h 1.89 v -1.895 c 0.487,0.886 0.937,1.471 1.349,1.752 0.413,0.283 0.867,0.424 1.362,0.424 0.715,0 1.441,-0.228 2.18,-0.682 l -0.74,-1.957 c -0.516,0.301 -1.033,0.451 -1.549,0.451 -0.461,0 -0.876,-0.138 -1.243,-0.417 -0.368,-0.278 -0.63,-0.664 -0.787,-1.158 -0.235,-0.752 -0.353,-1.575 -0.353,-2.468 v -6.535 z" /><path
         inkscape:connector-curvature="0"
         id="path2543"
         style="fill:#231f20;fill-opacity:1;fill-rule:nonzero;stroke:none"
         d="m 193.345,-19.739 h 6.968 c -0.094,1.052 -0.36,1.842 -0.799,2.368 -0.674,0.817 -1.547,1.225 -2.62,1.225 -0.972,0 -1.789,-0.326 -2.451,-0.978 -0.662,-0.651 -1.028,-1.523 -1.098,-2.615 m 6.945,-3.407 2.187,-0.281 c -0.345,-1.277 -0.982,-2.268 -1.914,-2.973 -0.933,-0.705 -2.123,-1.058 -3.571,-1.058 -1.825,0 -3.272,0.562 -4.341,1.687 -1.068,1.124 -1.603,2.701 -1.603,4.731 0,2.1 0.54,3.729 1.621,4.889 1.081,1.16 2.482,1.74 4.206,1.74 1.667,0 3.03,-0.568 4.087,-1.704 1.057,-1.136 1.586,-2.735 1.586,-4.794 0,-0.126 -0.004,-0.315 -0.012,-0.565 h -9.316 c 0.078,-1.373 0.466,-2.425 1.164,-3.155 0.699,-0.729 1.569,-1.095 2.612,-1.095 0.776,0 1.439,0.205 1.988,0.616 0.549,0.41 0.984,1.064 1.306,1.962" /><path
         inkscape:connector-curvature="0"
         id="path2545"
         style="fill:#231f20;fill-opacity:1;fill-rule:nonzero;stroke:none"
         d="m 205.1,-9.942 h 2.109 V -27.176 H 205.1 Z" /><path
         inkscape:connector-curvature="0"
         id="path2547"
         style="fill:#231f20;fill-opacity:1;fill-rule:nonzero;stroke:none"
         d="m 212.07,-19.739 h 6.969 c -0.094,1.052 -0.361,1.842 -0.799,2.368 -0.674,0.817 -1.547,1.225 -2.62,1.225 -0.972,0 -1.789,-0.326 -2.451,-0.978 -0.662,-0.651 -1.028,-1.523 -1.099,-2.615 m 6.946,-3.407 2.187,-0.281 c -0.345,-1.277 -0.983,-2.268 -1.915,-2.973 -0.932,-0.705 -2.122,-1.058 -3.571,-1.058 -1.824,0 -3.271,0.562 -4.341,1.687 -1.068,1.124 -1.603,2.701 -1.603,4.731 0,2.1 0.541,3.729 1.622,4.889 1.08,1.16 2.482,1.74 4.205,1.74 1.668,0 3.03,-0.568 4.088,-1.704 1.057,-1.136 1.585,-2.735 1.585,-4.794 0,-0.126 -0.003,-0.315 -0.011,-0.565 h -9.317 c 0.079,-1.373 0.467,-2.425 1.165,-3.155 0.698,-0.729 1.568,-1.095 2.612,-1.095 0.776,0 1.439,0.205 1.987,0.616 0.549,0.41 0.985,1.064 1.307,1.962" /><path
         inkscape:connector-curvature="0"
         id="path2549"
         style="fill:#231f20;fill-opacity:1;fill-rule:nonzero;stroke:none"
         d="m 231.826,-20.911 c -0.767,-0.314 -1.918,-0.58 -3.452,-0.799 -0.869,-0.126 -1.483,-0.268 -1.843,-0.424 -0.361,-0.156 -0.638,-0.386 -0.834,-0.687 -0.196,-0.302 -0.293,-0.637 -0.293,-1.006 0,-0.565 0.213,-1.034 0.638,-1.41 0.426,-0.377 1.049,-0.565 1.87,-0.565 0.812,0 1.535,0.178 2.168,0.535 0.632,0.357 1.097,0.844 1.394,1.463 0.227,0.479 0.34,1.184 0.34,2.117 z m 0.172,-4.719 c -0.787,-0.668 -1.541,-1.141 -2.264,-1.415 -0.723,-0.275 -1.498,-0.413 -2.326,-0.413 -1.367,0 -2.418,0.335 -3.153,1.005 -0.734,0.67 -1.101,1.526 -1.101,2.567 0,0.612 0.138,1.17 0.416,1.675 0.277,0.506 0.64,0.911 1.09,1.217 0.449,0.306 0.955,0.536 1.517,0.693 0.414,0.11 1.039,0.216 1.875,0.318 1.703,0.203 2.957,0.446 3.762,0.728 0.008,0.29 0.012,0.475 0.012,0.553 0,0.863 -0.2,1.471 -0.598,1.823 -0.54,0.479 -1.341,0.718 -2.404,0.718 -0.993,0 -1.726,-0.175 -2.199,-0.524 -0.473,-0.348 -0.823,-0.965 -1.049,-1.851 l -2.063,0.281 c 0.188,0.886 0.497,1.601 0.928,2.146 0.431,0.544 1.053,0.963 1.867,1.256 0.815,0.295 1.758,0.442 2.831,0.442 1.065,0 1.93,-0.125 2.596,-0.376 0.665,-0.251 1.155,-0.567 1.468,-0.946 0.313,-0.38 0.532,-0.861 0.658,-1.44 0.07,-0.361 0.105,-1.012 0.105,-1.951 v -2.822 c 0,-1.967 0.045,-3.211 0.136,-3.733 0.09,-0.52 0.269,-1.019 0.536,-1.498 h -2.203 c -0.227,0.442 -0.373,0.957 -0.437,1.547" /><path
         inkscape:connector-curvature="0"
         id="path2551"
         style="fill:#231f20;fill-opacity:1;fill-rule:nonzero;stroke:none"
         d="m 236.394,-23.442 2.093,0.328 c 0.118,-0.842 0.446,-1.489 0.983,-1.937 0.538,-0.448 1.289,-0.673 2.254,-0.673 0.974,0 1.695,0.199 2.166,0.595 0.471,0.397 0.707,0.861 0.707,1.396 0,0.479 -0.207,0.855 -0.621,1.13 -0.289,0.189 -1.01,0.428 -2.163,0.719 -1.554,0.392 -2.631,0.731 -3.23,1.016 -0.601,0.286 -1.056,0.681 -1.366,1.187 -0.309,0.505 -0.464,1.063 -0.464,1.674 0,0.557 0.127,1.071 0.382,1.545 0.255,0.475 0.602,0.868 1.04,1.182 0.329,0.242 0.779,0.448 1.347,0.616 0.568,0.169 1.178,0.253 1.828,0.253 0.98,0 1.84,-0.141 2.581,-0.423 0.74,-0.282 1.287,-0.664 1.64,-1.145 0.352,-0.482 0.596,-1.125 0.729,-1.932 l -2.063,-0.281 c -0.094,0.642 -0.366,1.144 -0.818,1.505 -0.451,0.361 -1.088,0.541 -1.912,0.541 -0.973,0 -1.668,-0.161 -2.084,-0.483 -0.416,-0.321 -0.623,-0.698 -0.623,-1.13 0,-0.275 0.086,-0.523 0.259,-0.742 0.172,-0.228 0.443,-0.417 0.812,-0.566 0.212,-0.079 0.836,-0.259 1.871,-0.541 1.499,-0.401 2.543,-0.728 3.133,-0.982 0.59,-0.255 1.053,-0.625 1.389,-1.11 0.336,-0.487 0.505,-1.089 0.505,-1.81 0,-0.705 -0.206,-1.369 -0.618,-1.992 -0.412,-0.622 -1.006,-1.104 -1.782,-1.445 -0.777,-0.341 -1.655,-0.511 -2.635,-0.511 -1.623,0 -2.86,0.338 -3.711,1.013 -0.852,0.674 -1.395,1.675 -1.629,3.003" /><path
         inkscape:connector-curvature="0"
         id="path2553"
         style="fill:#231f20;fill-opacity:1;fill-rule:nonzero;stroke:none"
         d="m 250.861,-19.739 h 6.969 c -0.094,1.052 -0.361,1.842 -0.799,2.368 -0.674,0.817 -1.548,1.225 -2.621,1.225 -0.972,0 -1.788,-0.326 -2.451,-0.978 -0.662,-0.651 -1.028,-1.523 -1.098,-2.615 m 6.945,-3.407 2.188,-0.281 c -0.345,-1.277 -0.984,-2.268 -1.915,-2.973 -0.932,-0.705 -2.122,-1.058 -3.572,-1.058 -1.824,0 -3.271,0.562 -4.34,1.687 -1.069,1.124 -1.603,2.701 -1.603,4.731 0,2.1 0.54,3.729 1.621,4.889 1.08,1.16 2.482,1.74 4.205,1.74 1.668,0 3.031,-0.568 4.088,-1.704 1.057,-1.136 1.586,-2.735 1.586,-4.794 0,-0.126 -0.004,-0.315 -0.012,-0.565 h -9.316 c 0.078,-1.373 0.467,-2.425 1.164,-3.155 0.698,-0.729 1.569,-1.095 2.612,-1.095 0.777,0 1.439,0.205 1.988,0.616 0.549,0.41 0.984,1.064 1.306,1.962" /><path
         inkscape:connector-curvature="0"
         id="path2555"
         style="fill:#231f20;fill-opacity:1;fill-rule:nonzero;stroke:none"
         d="m 264.053,-20.948 c 0,-1.6 0.337,-2.795 1.01,-3.588 0.674,-0.791 1.469,-1.188 2.385,-1.188 0.924,0 1.709,0.378 2.355,1.135 0.646,0.757 0.969,1.911 0.969,3.464 0,1.71 -0.329,2.964 -0.987,3.765 -0.658,0.798 -1.468,1.199 -2.431,1.199 -0.94,0 -1.725,-0.385 -2.355,-1.152 -0.63,-0.77 -0.946,-1.981 -0.946,-3.635 m 6.688,-6.229 v 1.571 c -0.791,-1.235 -1.954,-1.852 -3.49,-1.852 -0.995,0 -1.91,0.274 -2.744,0.822 -0.834,0.549 -1.48,1.315 -1.938,2.299 -0.458,0.983 -0.688,2.113 -0.688,3.391 0,1.246 0.208,2.376 0.623,3.39 0.415,1.015 1.038,1.793 1.869,2.334 0.83,0.54 1.757,0.811 2.785,0.811 0.752,0 1.422,-0.158 2.009,-0.476 0.586,-0.317 1.065,-0.73 1.433,-1.239 v 6.184 h 2.109 v -17.235 z" /><path
         inkscape:connector-curvature="0"
         id="path2557"
         style="fill:#231f20;fill-opacity:1;fill-rule:nonzero;stroke:none"
         d="m 282.728,-14.692 h 2.109 v -12.484 h -2.109 z m 0,4.75 h 2.109 v -2.438 h -2.109 z" /><path
         inkscape:connector-curvature="0"
         id="path2559"
         style="fill:#231f20;fill-opacity:1;fill-rule:nonzero;stroke:none"
         d="m 288.073,-27.177 v 12.485 h 1.89 v -1.775 c 0.916,1.37 2.24,2.056 3.971,2.056 0.751,0 1.442,-0.135 2.073,-0.405 0.63,-0.271 1.102,-0.625 1.415,-1.065 0.314,-0.438 0.533,-0.96 0.659,-1.563 0.078,-0.392 0.117,-1.077 0.117,-2.057 v -7.676 h -2.11 v 7.598 c 0,0.862 -0.082,1.507 -0.247,1.934 -0.164,0.427 -0.455,0.769 -0.874,1.023 -0.419,0.256 -0.91,0.383 -1.473,0.383 -0.901,0 -1.678,-0.286 -2.331,-0.859 -0.654,-0.572 -0.981,-1.658 -0.981,-3.257 v -6.822 z" /><path
         inkscape:connector-curvature="0"
         id="path2561"
         style="fill:#231f20;fill-opacity:1;fill-rule:nonzero;stroke:none"
         d="m 310.043,-21.007 c 0,-1.607 0.326,-2.796 0.975,-3.564 0.649,-0.769 1.436,-1.153 2.359,-1.153 0.939,0 1.744,0.399 2.413,1.194 0.668,0.797 1.003,2.029 1.003,3.699 0,1.592 -0.327,2.783 -0.98,3.576 -0.653,0.791 -1.435,1.188 -2.342,1.188 -0.899,0 -1.696,-0.422 -2.388,-1.265 -0.693,-0.843 -1.04,-2.067 -1.04,-3.675 m -1.906,-10.951 v 17.266 h 1.922 v -1.622 c 0.454,0.633 0.968,1.11 1.539,1.427 0.571,0.318 1.265,0.476 2.08,0.476 1.066,0 2.005,-0.275 2.82,-0.822 0.814,-0.549 1.429,-1.324 1.844,-2.323 0.415,-0.999 0.623,-2.093 0.623,-3.285 0,-1.277 -0.229,-2.427 -0.687,-3.449 -0.458,-1.023 -1.124,-1.807 -1.997,-2.352 -0.874,-0.544 -1.793,-0.816 -2.756,-0.816 -0.705,0 -1.338,0.148 -1.898,0.445 -0.56,0.297 -1.02,0.672 -1.38,1.125 v -6.07 z" /><path
         inkscape:connector-curvature="0"
         id="path2563"
         style="fill:#231f20;fill-opacity:1;fill-rule:nonzero;stroke:none"
         d="m 329.674,-27.177 v 1.841 c -0.968,-1.415 -2.285,-2.122 -3.949,-2.122 -0.734,0 -1.42,0.141 -2.057,0.423 -0.636,0.282 -1.109,0.637 -1.418,1.064 -0.308,0.427 -0.525,0.95 -0.65,1.57 -0.086,0.415 -0.129,1.073 -0.129,1.974 v 7.735 h 2.11 v -6.92 c 0,-1.105 0.043,-1.848 0.128,-2.233 0.133,-0.555 0.415,-0.992 0.845,-1.309 0.43,-0.318 0.961,-0.476 1.595,-0.476 0.633,0 1.227,0.162 1.782,0.487 0.555,0.326 0.947,0.768 1.179,1.328 0.23,0.56 0.346,1.373 0.346,2.438 v 6.685 h 2.108 v -12.485 z" /><path
         inkscape:connector-curvature="0"
         id="path2565"
         style="fill:#231f20;fill-opacity:1;fill-rule:nonzero;stroke:none"
         d="m 336.804,-20.841 c 0,-1.498 0.204,-2.58 0.612,-3.247 0.667,-1.091 1.569,-1.636 2.708,-1.636 0.926,0 1.727,0.403 2.401,1.206 0.675,0.804 1.013,2.002 1.013,3.595 0,1.632 -0.324,2.836 -0.972,3.612 -0.647,0.777 -1.43,1.165 -2.348,1.165 -0.926,0 -1.727,-0.402 -2.402,-1.206 -0.674,-0.803 -1.012,-1.966 -1.012,-3.489 m 0.031,-6.336 h -1.953 v 17.235 h 2.109 v -6.145 c 0.895,1.117 2.035,1.676 3.424,1.676 0.769,0 1.496,-0.154 2.183,-0.465 0.686,-0.309 1.251,-0.744 1.694,-1.305 0.443,-0.559 0.791,-1.235 1.041,-2.027 0.252,-0.791 0.377,-1.638 0.377,-2.539 0,-2.139 -0.529,-3.792 -1.589,-4.96 -1.059,-1.167 -2.331,-1.751 -3.813,-1.751 -1.476,0 -2.633,0.613 -3.473,1.84 z" /><path
         inkscape:connector-curvature="0"
         id="path2567"
         style="fill:#231f20;fill-opacity:1;fill-rule:nonzero;stroke:none"
         d="m 348.231,-9.942 h 2.109 v -17.234 h -2.109 z" /><path
         inkscape:connector-curvature="0"
         id="path2569"
         style="fill:#231f20;fill-opacity:1;fill-rule:nonzero;stroke:none"
         d="m 353.623,-14.692 h 2.109 v -12.484 h -2.109 z m 0,4.75 h 2.109 v -2.438 h -2.109 z" /><path
         inkscape:connector-curvature="0"
         id="path2571"
         style="fill:#231f20;fill-opacity:1;fill-rule:nonzero;stroke:none"
         d="m 367.109,-22.599 2.079,-0.281 c -0.228,-1.432 -0.81,-2.553 -1.747,-3.363 -0.936,-0.811 -2.087,-1.215 -3.45,-1.215 -1.709,0 -3.082,0.559 -4.121,1.675 -1.039,1.116 -1.557,2.717 -1.557,4.802 0,1.347 0.223,2.527 0.669,3.537 0.447,1.011 1.126,1.769 2.039,2.275 0.914,0.505 1.907,0.758 2.98,0.758 1.355,0 2.465,-0.344 3.326,-1.029 0.861,-0.687 1.414,-1.662 1.657,-2.924 l -2.062,-0.313 c -0.196,0.84 -0.542,1.472 -1.04,1.896 -0.497,0.424 -1.098,0.635 -1.803,0.635 -1.065,0 -1.931,-0.382 -2.596,-1.147 -0.666,-0.765 -0.999,-1.975 -0.999,-3.63 0,-1.679 0.322,-2.898 0.965,-3.659 0.644,-0.761 1.483,-1.142 2.519,-1.142 0.831,0 1.525,0.256 2.082,0.767 0.557,0.511 0.91,1.297 1.059,2.358" /><path
         inkscape:connector-curvature="0"
         id="path2573"
         style="fill:#231f20;fill-opacity:1;fill-rule:nonzero;stroke:none"
         d="m 379.073,-20.948 c 0,-1.6 0.337,-2.795 1.01,-3.588 0.674,-0.791 1.469,-1.188 2.385,-1.188 0.924,0 1.709,0.378 2.355,1.135 0.646,0.757 0.969,1.911 0.969,3.464 0,1.71 -0.329,2.964 -0.986,3.765 -0.659,0.798 -1.469,1.199 -2.432,1.199 -0.939,0 -1.725,-0.385 -2.355,-1.152 -0.63,-0.77 -0.946,-1.981 -0.946,-3.635 m 6.688,-6.229 v 1.571 c -0.791,-1.235 -1.955,-1.852 -3.49,-1.852 -0.995,0 -1.91,0.274 -2.744,0.822 -0.834,0.549 -1.48,1.315 -1.938,2.299 -0.459,0.983 -0.688,2.113 -0.688,3.391 0,1.246 0.207,2.376 0.623,3.39 0.415,1.015 1.038,1.793 1.869,2.334 0.83,0.54 1.758,0.811 2.784,0.811 0.752,0 1.422,-0.158 2.01,-0.476 0.587,-0.317 1.065,-0.73 1.433,-1.239 v 6.184 h 2.109 v -17.235 z" /><path
         inkscape:connector-curvature="0"
         id="path2575"
         style="fill:#231f20;fill-opacity:1;fill-rule:nonzero;stroke:none"
         d="m 392.438,-20.937 c 0,-1.599 0.348,-2.796 1.045,-3.593 0.698,-0.795 1.575,-1.194 2.632,-1.194 1.05,0 1.923,0.401 2.62,1.2 0.698,0.8 1.046,2.019 1.046,3.658 0,1.545 -0.35,2.715 -1.052,3.512 -0.701,0.794 -1.572,1.193 -2.614,1.193 -1.057,0 -1.934,-0.397 -2.632,-1.188 -0.697,-0.793 -1.045,-1.988 -1.045,-3.588 m -2.172,0.002 c 0,2.312 0.641,4.024 1.926,5.137 1.073,0.924 2.38,1.387 3.923,1.387 1.715,0 3.116,-0.563 4.205,-1.687 1.089,-1.125 1.633,-2.678 1.633,-4.661 0,-1.605 -0.241,-2.869 -0.723,-3.79 -0.481,-0.921 -1.182,-1.636 -2.102,-2.145 -0.92,-0.509 -1.924,-0.764 -3.013,-0.764 -1.746,0 -3.158,0.561 -4.234,1.681 -1.077,1.12 -1.615,2.735 -1.615,4.842" /><path
         inkscape:connector-curvature="0"
         id="path2577"
         style="fill:#231f20;fill-opacity:1;fill-rule:nonzero;stroke:none"
         d="m 404.436,-27.177 v 12.485 h 1.89 v -1.747 c 0.392,0.609 0.911,1.1 1.561,1.471 0.649,0.371 1.387,0.557 2.217,0.557 0.922,0 1.679,-0.192 2.27,-0.574 0.59,-0.384 1.007,-0.919 1.249,-1.607 0.988,1.454 2.275,2.181 3.859,2.181 1.24,0 2.193,-0.343 2.86,-1.028 0.667,-0.687 1,-1.743 1,-3.168 v -8.57 h -2.11 v 7.868 c 0,0.847 -0.068,1.456 -0.206,1.83 -0.136,0.372 -0.385,0.671 -0.746,0.899 -0.361,0.227 -0.785,0.341 -1.27,0.341 -0.879,0 -1.609,-0.292 -2.189,-0.876 -0.58,-0.585 -0.87,-1.52 -0.87,-2.806 v -7.256 h -2.109 v 8.115 c 0,0.941 -0.172,1.647 -0.517,2.117 -0.345,0.47 -0.908,0.706 -1.691,0.706 -0.595,0 -1.145,-0.157 -1.651,-0.471 -0.504,-0.313 -0.871,-0.772 -1.097,-1.376 -0.227,-0.603 -0.341,-1.474 -0.341,-2.61 v -6.481 z" /><path
         inkscape:connector-curvature="0"
         id="path2579"
         style="fill:#231f20;fill-opacity:1;fill-rule:nonzero;stroke:none"
         d="m 432.438,-20.911 c -0.767,-0.314 -1.918,-0.58 -3.453,-0.799 -0.868,-0.126 -1.482,-0.268 -1.842,-0.424 -0.361,-0.156 -0.638,-0.386 -0.833,-0.687 -0.197,-0.302 -0.294,-0.637 -0.294,-1.006 0,-0.565 0.213,-1.034 0.638,-1.41 0.426,-0.377 1.049,-0.565 1.869,-0.565 0.813,0 1.536,0.178 2.168,0.535 0.633,0.357 1.098,0.844 1.395,1.463 0.227,0.479 0.34,1.184 0.34,2.117 z m 0.171,-4.719 c -0.786,-0.668 -1.541,-1.141 -2.263,-1.415 -0.723,-0.275 -1.498,-0.413 -2.326,-0.413 -1.368,0 -2.418,0.335 -3.153,1.005 -0.734,0.67 -1.101,1.526 -1.101,2.567 0,0.612 0.138,1.17 0.416,1.675 0.277,0.506 0.64,0.911 1.089,1.217 0.45,0.306 0.956,0.536 1.518,0.693 0.414,0.11 1.039,0.216 1.875,0.318 1.703,0.203 2.957,0.446 3.762,0.728 0.008,0.29 0.012,0.475 0.012,0.553 0,0.863 -0.2,1.471 -0.599,1.823 -0.539,0.479 -1.34,0.718 -2.403,0.718 -0.994,0 -1.726,-0.175 -2.199,-0.524 -0.473,-0.348 -0.823,-0.965 -1.049,-1.851 l -2.063,0.281 c 0.188,0.886 0.497,1.601 0.928,2.146 0.43,0.544 1.052,0.963 1.867,1.256 0.814,0.295 1.759,0.442 2.831,0.442 1.064,0 1.93,-0.125 2.596,-0.376 0.665,-0.251 1.154,-0.567 1.467,-0.946 0.314,-0.38 0.533,-0.861 0.659,-1.44 0.07,-0.361 0.105,-1.012 0.105,-1.951 v -2.822 c 0,-1.967 0.045,-3.211 0.136,-3.733 0.09,-0.52 0.268,-1.019 0.536,-1.498 h -2.203 c -0.228,0.442 -0.373,0.957 -0.438,1.547" /><path
         inkscape:connector-curvature="0"
         id="path2581"
         style="fill:#231f20;fill-opacity:1;fill-rule:nonzero;stroke:none"
         d="m 437.865,-14.692 h 2.109 v -12.484 h -2.109 z m 0,4.75 h 2.109 v -2.438 h -2.109 z" /><path
         inkscape:connector-curvature="0"
         id="path2583"
         style="fill:#231f20;fill-opacity:1;fill-rule:nonzero;stroke:none"
         d="m 443.21,-27.177 v 12.485 h 1.891 v -1.775 c 0.916,1.37 2.239,2.056 3.97,2.056 0.752,0 1.443,-0.135 2.074,-0.405 0.629,-0.271 1.101,-0.625 1.415,-1.065 0.313,-0.438 0.532,-0.96 0.658,-1.563 0.078,-0.392 0.117,-1.077 0.117,-2.057 v -7.676 h -2.109 v 7.598 c 0,0.862 -0.082,1.507 -0.247,1.934 -0.165,0.427 -0.457,0.769 -0.875,1.023 -0.418,0.256 -0.91,0.383 -1.473,0.383 -0.901,0 -1.678,-0.286 -2.331,-0.859 -0.654,-0.572 -0.981,-1.658 -0.981,-3.257 v -6.822 z" /><path
         inkscape:connector-curvature="0"
         id="path2585"
         style="fill:#231f20;fill-opacity:1;fill-rule:nonzero;stroke:none"
         d="m 465.181,-20.841 c 0,-1.498 0.204,-2.58 0.612,-3.247 0.667,-1.091 1.569,-1.636 2.708,-1.636 0.926,0 1.727,0.403 2.401,1.206 0.675,0.804 1.013,2.002 1.013,3.595 0,1.632 -0.324,2.836 -0.972,3.612 -0.647,0.777 -1.43,1.165 -2.348,1.165 -0.926,0 -1.727,-0.402 -2.402,-1.206 -0.674,-0.803 -1.012,-1.966 -1.012,-3.489 m 0.031,-6.336 h -1.953 v 17.235 h 2.109 v -6.145 c 0.895,1.117 2.035,1.676 3.424,1.676 0.769,0 1.496,-0.154 2.183,-0.465 0.686,-0.309 1.251,-0.744 1.694,-1.305 0.443,-0.559 0.791,-1.235 1.041,-2.027 0.252,-0.791 0.377,-1.638 0.377,-2.539 0,-2.139 -0.529,-3.792 -1.589,-4.96 -1.06,-1.167 -2.331,-1.751 -3.813,-1.751 -1.476,0 -2.633,0.613 -3.473,1.84 z" /><path
         inkscape:connector-curvature="0"
         id="path2587"
         style="fill:#231f20;fill-opacity:1;fill-rule:nonzero;stroke:none"
         d="m 476.562,-31.979 -0.235,1.99 c 0.461,-0.125 0.864,-0.188 1.208,-0.188 0.47,0 0.845,0.078 1.126,0.235 0.281,0.157 0.513,0.377 0.693,0.658 0.132,0.212 0.347,0.736 0.645,1.574 0.039,0.118 0.102,0.29 0.188,0.518 l -4.75,12.5 h 2.28 l 2.602,-7.198 c 0.338,-0.912 0.64,-1.872 0.908,-2.879 0.244,0.941 0.535,1.873 0.873,2.797 l 2.665,7.28 h 2.114 l -4.733,-12.704 c -0.51,-1.369 -0.906,-2.31 -1.188,-2.827 -0.376,-0.695 -0.807,-1.205 -1.293,-1.53 -0.486,-0.324 -1.066,-0.486 -1.74,-0.486 -0.407,0 -0.862,0.086 -1.363,0.26" /><path
         inkscape:connector-curvature="0"
         id="path2589"
         style="fill:#231f20;fill-opacity:1;fill-rule:nonzero;stroke:none"
         d="m 495.744,-27.177 v 17.235 h 11.625 v -2.032 h -9.344 v -5.343 h 8.094 v -2.032 h -8.094 v -7.828 z" /><path
         inkscape:connector-curvature="0"
         id="path2591"
         style="fill:#231f20;fill-opacity:1;fill-rule:nonzero;stroke:none"
         d="m 510.034,-27.177 v 12.485 h 1.891 v -1.895 c 0.487,0.886 0.936,1.471 1.349,1.752 0.413,0.283 0.866,0.424 1.362,0.424 0.715,0 1.441,-0.228 2.179,-0.682 l -0.74,-1.957 c -0.515,0.301 -1.032,0.451 -1.549,0.451 -0.461,0 -0.875,-0.138 -1.243,-0.417 -0.367,-0.278 -0.63,-0.664 -0.786,-1.158 -0.236,-0.752 -0.353,-1.575 -0.353,-2.468 v -6.535 z" /><path
         inkscape:connector-curvature="0"
         id="path2593"
         style="fill:#231f20;fill-opacity:1;fill-rule:nonzero;stroke:none"
         d="m 519.655,-19.739 h 6.969 c -0.094,1.052 -0.36,1.842 -0.799,2.368 -0.674,0.817 -1.548,1.225 -2.621,1.225 -0.972,0 -1.788,-0.326 -2.45,-0.978 -0.662,-0.651 -1.028,-1.523 -1.099,-2.615 m 6.946,-3.407 2.187,-0.281 c -0.345,-1.277 -0.983,-2.268 -1.915,-2.973 -0.932,-0.705 -2.122,-1.058 -3.571,-1.058 -1.824,0 -3.272,0.562 -4.34,1.687 -1.069,1.124 -1.604,2.701 -1.604,4.731 0,2.1 0.54,3.729 1.621,4.889 1.081,1.16 2.483,1.74 4.206,1.74 1.668,0 3.031,-0.568 4.087,-1.704 1.057,-1.136 1.586,-2.735 1.586,-4.794 0,-0.126 -0.004,-0.315 -0.011,-0.565 h -9.317 c 0.078,-1.373 0.467,-2.425 1.164,-3.155 0.699,-0.729 1.57,-1.095 2.613,-1.095 0.776,0 1.438,0.205 1.988,0.616 0.549,0.41 0.983,1.064 1.306,1.962" /><path
         inkscape:connector-curvature="0"
         id="path2595"
         style="fill:#231f20;fill-opacity:1;fill-rule:nonzero;stroke:none"
         d="m 533.035,-19.739 h 6.969 c -0.095,1.052 -0.36,1.842 -0.799,2.368 -0.674,0.817 -1.548,1.225 -2.621,1.225 -0.972,0 -1.788,-0.326 -2.45,-0.978 -0.662,-0.651 -1.029,-1.523 -1.099,-2.615 m 6.945,-3.407 2.188,-0.281 c -0.345,-1.277 -0.983,-2.268 -1.915,-2.973 -0.932,-0.705 -2.122,-1.058 -3.57,-1.058 -1.826,0 -3.273,0.562 -4.341,1.687 -1.07,1.124 -1.604,2.701 -1.604,4.731 0,2.1 0.54,3.729 1.621,4.889 1.081,1.16 2.483,1.74 4.205,1.74 1.668,0 3.031,-0.568 4.088,-1.704 1.058,-1.136 1.586,-2.735 1.586,-4.794 0,-0.126 -0.004,-0.315 -0.011,-0.565 h -9.317 c 0.078,-1.373 0.467,-2.425 1.165,-3.155 0.697,-0.729 1.569,-1.095 2.612,-1.095 0.776,0 1.439,0.205 1.988,0.616 0.549,0.41 0.984,1.064 1.305,1.962" /><path
         inkscape:connector-curvature="0"
         id="path2597"
         style="fill:#231f20;fill-opacity:1;fill-rule:nonzero;stroke:none"
         d="m 544.338,-21.646 2.156,0.188 c 0.102,-0.864 0.338,-1.574 0.709,-2.128 0.371,-0.554 0.948,-1.002 1.73,-1.344 0.781,-0.341 1.661,-0.512 2.637,-0.512 0.868,0 1.634,0.129 2.298,0.388 0.664,0.26 1.158,0.616 1.484,1.068 0.324,0.451 0.486,0.944 0.486,1.476 0,0.541 -0.156,1.013 -0.468,1.417 -0.311,0.404 -0.828,0.742 -1.549,1.017 -0.462,0.18 -1.484,0.461 -3.066,0.842 -1.583,0.38 -2.692,0.739 -3.328,1.077 -0.824,0.431 -1.438,0.967 -1.842,1.607 -0.404,0.639 -0.606,1.356 -0.606,2.149 0,0.871 0.247,1.685 0.741,2.442 0.493,0.757 1.215,1.332 2.163,1.725 0.948,0.392 2.003,0.588 3.163,0.588 1.278,0 2.404,-0.205 3.381,-0.616 0.976,-0.411 1.726,-1.015 2.252,-1.813 0.525,-0.798 0.807,-1.701 0.846,-2.711 l -2.187,-0.172 c -0.118,1.087 -0.515,1.908 -1.192,2.464 -0.678,0.556 -1.68,0.833 -3.003,0.833 -1.38,0 -2.384,-0.253 -3.015,-0.759 -0.631,-0.507 -0.946,-1.116 -0.946,-1.83 0,-0.62 0.223,-1.13 0.67,-1.53 0.438,-0.401 1.585,-0.811 3.437,-1.23 1.853,-0.42 3.124,-0.786 3.814,-1.099 1.002,-0.462 1.743,-1.048 2.221,-1.757 0.478,-0.709 0.717,-1.526 0.717,-2.449 0,-0.917 -0.263,-1.781 -0.787,-2.591 -0.525,-0.812 -1.277,-1.442 -2.26,-1.892 -0.982,-0.45 -2.089,-0.676 -3.317,-0.676 -1.558,0 -2.864,0.228 -3.916,0.682 -1.053,0.454 -1.879,1.138 -2.478,2.051 -0.598,0.912 -0.914,1.944 -0.945,3.095" /><path
         inkscape:connector-curvature="0"
         id="path2599"
         style="fill:#231f20;fill-opacity:1;fill-rule:nonzero;stroke:none"
         d="m 566.063,-27.177 -6.666,17.235 h 2.472 l 4.478,-12.516 c 0.36,-1.003 0.662,-1.943 0.905,-2.82 0.267,0.939 0.576,1.88 0.929,2.82 l 4.657,12.516 h 2.331 l -6.748,-17.235 z" /><path
         inkscape:connector-curvature="0"
         id="path2601"
         style="fill:#231f20;fill-opacity:1;fill-rule:nonzero;stroke:none"
         d="m 585.26,-20.427 v 2.031 h 7.297 v -6.388 c -1.12,-0.893 -2.277,-1.565 -3.468,-2.014 -1.191,-0.451 -2.413,-0.676 -3.666,-0.676 -1.694,0 -3.231,0.363 -4.613,1.088 -1.384,0.725 -2.428,1.774 -3.133,3.146 -0.705,1.372 -1.058,2.905 -1.058,4.598 0,1.678 0.351,3.244 1.052,4.698 0.701,1.455 1.71,2.535 3.026,3.24 1.317,0.706 2.833,1.058 4.549,1.058 1.245,0 2.372,-0.202 3.379,-0.606 1.007,-0.404 1.796,-0.968 2.368,-1.689 0.572,-0.722 1.007,-1.664 1.305,-2.827 l -2.058,-0.563 c -0.259,0.878 -0.58,1.568 -0.965,2.071 -0.383,0.503 -0.932,0.906 -1.645,1.208 -0.714,0.302 -1.506,0.453 -2.376,0.453 -1.042,0 -1.944,-0.158 -2.704,-0.476 -0.761,-0.317 -1.375,-0.735 -1.841,-1.252 -0.466,-0.517 -0.829,-1.085 -1.088,-1.704 -0.438,-1.066 -0.658,-2.222 -0.658,-3.468 0,-1.536 0.265,-2.821 0.794,-3.855 0.529,-1.036 1.299,-1.803 2.31,-2.305 1.011,-0.501 2.085,-0.752 3.222,-0.752 0.988,0 1.952,0.189 2.894,0.568 0.94,0.38 1.653,0.784 2.139,1.215 v 3.201 z" /><path
         inkscape:connector-curvature="0"
         id="path2603"
         style="fill:#231f20;fill-opacity:1;fill-rule:nonzero;stroke:none"
         d="m 596.239,-24.771 h 2.406 v -2.406 h -2.406 z" /><path
         inkscape:connector-curvature="0"
         id="path2605"
         style="fill:#231f20;fill-opacity:1;fill-rule:nonzero;stroke:none"
         d="m 603.705,-20.937 c 0,-1.599 0.349,-2.796 1.046,-3.593 0.697,-0.795 1.574,-1.194 2.632,-1.194 1.05,0 1.923,0.401 2.62,1.2 0.697,0.8 1.046,2.019 1.046,3.658 0,1.545 -0.351,2.715 -1.052,3.512 -0.701,0.794 -1.572,1.193 -2.614,1.193 -1.058,0 -1.935,-0.397 -2.632,-1.188 -0.697,-0.793 -1.046,-1.988 -1.046,-3.588 m -2.172,0.002 c 0,2.312 0.642,4.024 1.927,5.137 1.072,0.924 2.38,1.387 3.923,1.387 1.715,0 3.116,-0.563 4.205,-1.687 1.089,-1.125 1.633,-2.678 1.633,-4.661 0,-1.605 -0.242,-2.869 -0.723,-3.79 -0.481,-0.921 -1.183,-1.636 -2.102,-2.145 -0.92,-0.509 -1.924,-0.764 -3.013,-0.764 -1.746,0 -3.158,0.561 -4.235,1.681 -1.077,1.12 -1.615,2.735 -1.615,4.842" /><path
         inkscape:connector-curvature="0"
         id="path2607"
         style="fill:#231f20;fill-opacity:1;fill-rule:nonzero;stroke:none"
         d="m 615.679,-27.177 v 12.485 h 1.89 v -1.895 c 0.488,0.886 0.937,1.471 1.35,1.752 0.412,0.283 0.865,0.424 1.361,0.424 0.715,0 1.442,-0.228 2.18,-0.682 l -0.74,-1.957 c -0.516,0.301 -1.032,0.451 -1.549,0.451 -0.461,0 -0.875,-0.138 -1.243,-0.417 -0.367,-0.278 -0.63,-0.664 -0.786,-1.158 -0.237,-0.752 -0.354,-1.575 -0.354,-2.468 v -6.535 z" /><path
         inkscape:connector-curvature="0"
         id="path2609"
         style="fill:#231f20;fill-opacity:1;fill-rule:nonzero;stroke:none"
         d="m 625.077,-20.712 c 0,-1.639 0.325,-2.834 0.975,-3.586 0.649,-0.753 1.463,-1.129 2.441,-1.129 0.971,0 1.784,0.374 2.442,1.123 0.658,0.748 0.986,1.922 0.986,3.522 0,1.528 -0.338,2.68 -1.016,3.457 -0.676,0.775 -1.492,1.164 -2.447,1.164 -0.939,0 -1.737,-0.383 -2.395,-1.147 -0.657,-0.764 -0.986,-1.899 -0.986,-3.404 m -1.75,-7.496 2.063,-0.313 c 0.086,-0.632 0.325,-1.093 0.715,-1.382 0.525,-0.391 1.241,-0.586 2.148,-0.586 0.977,0 1.732,0.196 2.265,0.588 0.531,0.392 0.891,0.941 1.079,1.647 0.109,0.432 0.16,1.337 0.152,2.718 -0.924,-1.094 -2.074,-1.641 -3.453,-1.641 -1.715,0 -3.042,0.619 -3.982,1.858 -0.939,1.238 -1.409,2.722 -1.409,4.455 0,1.191 0.216,2.29 0.647,3.297 0.43,1.006 1.055,1.785 1.874,2.333 0.818,0.548 1.78,0.823 2.884,0.823 1.472,0 2.687,-0.594 3.642,-1.781 v 1.5 h 1.953 v -10.789 c 0,-1.944 -0.197,-3.321 -0.593,-4.131 -0.396,-0.811 -1.023,-1.451 -1.88,-1.922 -0.859,-0.47 -1.914,-0.705 -3.168,-0.705 -1.489,0 -2.692,0.335 -3.609,1.005 -0.917,0.67 -1.359,1.678 -1.328,3.026" /></g><g
       id="g3305"><path
         inkscape:connector-curvature="0"
         id="path2611"
         style="fill:#f7ee0c;fill-opacity:1;fill-rule:nonzero;stroke:none"
         d="m 91.716,258.653 c -1.353,0.78 -2.669,1.39 -3.943,1.822 l 0.257,0.77 c -1.241,0.805 -2.494,1.577 -3.773,2.273 -6.232,3.387 95.332,286.486 94.015,290.438 0,0 91.58,29.247 109.931,31.448 2.398,0.763 4.794,1.529 7.195,2.282 2.73,3.249 5.858,6.306 8.988,8.583 3.71,2.698 5.41,4.427 6.656,5.691 2.365,2.404 3.394,3.226 9.3,4.495 l 0.385,0.042 h 13.904 v -0.036 l 2.133,-0.006 c 5.903,-1.269 6.933,-2.091 9.299,-4.495 1.243,-1.264 2.947,-2.993 6.657,-5.691 2.744,-1.997 5.493,-4.593 7.969,-7.394 1.415,-0.801 2.879,-1.527 4.369,-2.181 1.021,-0.438 2.058,-0.836 3.107,-1.215 16.456,-1.436 110.668,-31.523 110.668,-31.523 -1.316,-3.952 100.246,-287.051 94.014,-290.438 -47.409,-25.766 -70.839,-131.001 -86.373,-199.412 95.747,54.04 160.405,156.708 160.405,274.49 0,173.967 -141.026,314.993 -314.991,314.993 -173.966,0 -314.992,-141.026 -314.992,-314.993 0,-113.895 60.453,-213.664 151.017,-268.99 -17.334,84.459 -37.224,137.112 -54.866,165.384 -6.473,9.684 -13.554,17.772 -21.331,23.663" /><path
         inkscape:connector-curvature="0"
         id="path2613"
         style="fill:#110f0d;fill-opacity:1;fill-rule:nonzero;stroke:none"
         d="m 327.744,520.185 c -1.771,0.001 -3.541,-0.102 -5.311,-0.301 -1.769,-0.201 -3.539,-0.493 -5.309,-1.052 1.77,-0.561 3.54,-0.853 5.309,-1.052 1.77,-0.198 3.54,-0.304 5.311,-0.301 1.769,-0.006 3.539,0.099 5.309,0.298 1.77,0.196 3.541,0.491 5.31,1.055 -1.769,0.562 -3.54,0.856 -5.31,1.054 -1.77,0.197 -3.54,0.305 -5.309,0.299 m 0.031,6.468 c -2.083,-0.007 -4.164,-0.09 -6.244,-0.314 -2.081,-0.207 -4.162,-0.511 -6.243,-1.092 2.081,-0.582 4.162,-0.887 6.243,-1.095 2.08,-0.222 4.161,-0.307 6.244,-0.312 2.08,0.002 4.162,0.086 6.243,0.309 2.08,0.205 4.162,0.512 6.241,1.098 -2.079,0.585 -4.161,0.89 -6.241,1.098 -2.081,0.221 -4.163,0.306 -6.243,0.308 m -7.403,-116.758 c -2.82,1.418 -5.429,3.138 -7.303,5.468 -1.939,2.408 -2.936,5.445 -2.799,8.487 0.085,3.046 1.209,6.057 3.008,8.595 1.823,2.525 4.346,4.629 7.414,5.818 -3.258,-0.496 -6.352,-2.329 -8.53,-4.939 -2.213,-2.588 -3.585,-5.938 -3.72,-9.412 -0.136,-3.468 1.15,-7.015 3.547,-9.484 2.268,-2.424 5.291,-3.811 8.332,-4.602 -1.172,-1.582 -2.523,-3.46 -5.394,-5.438 -7.739,-5.338 -15.969,-7.177 -19.262,-12.444 -1.508,-2.416 -0.368,-5.236 2.573,-7.331 -0.594,0.203 -1.178,0.429 -1.733,0.701 -1.872,0.88 -3.474,2.15 -4.763,3.633 -2.539,3.01 -3.797,7.017 -3.593,10.895 0.142,3.861 1.847,7.676 5.149,9.575 3.276,2.041 7.809,1.651 12.163,1.186 -1.978,1.027 -4.112,1.725 -6.369,2.134 -2.071,0.361 -4.406,0.248 -6.534,-0.577 -0.54,-0.04 -1.076,-0.113 -1.581,-0.257 -1.576,-0.391 -2.971,-1.113 -4.293,-1.894 -2.599,-1.616 -4.77,-3.596 -6.762,-5.634 -1.989,-2.047 -3.781,-4.182 -5.524,-6.334 -1.752,-2.173 -3.394,-4.314 -5.406,-6.592 3.089,0.262 5.887,1.765 8.311,3.421 2.436,1.693 4.577,3.658 6.55,5.675 0.277,0.283 0.527,0.573 0.795,0.858 -0.064,-0.464 -0.126,-0.927 -0.151,-1.388 -0.188,-4.835 1.607,-9.788 5.21,-13.056 1.774,-1.633 3.957,-2.769 6.212,-3.332 1.534,-0.357 3.085,-0.448 4.598,-0.332 3.555,-1.613 8.59,-2.321 14.41,-1.12 0,0 11.444,-3.074 13.747,-8.672 l -0.123,1.782 0.123,-1.782 c 2.305,5.598 13.503,8.672 13.503,8.672 5.819,-1.201 10.855,-0.493 14.409,1.12 1.514,-0.116 3.066,-0.025 4.599,0.332 2.256,0.563 4.438,1.699 6.211,3.332 3.426,3.105 5.195,7.732 5.203,12.334 1.442,-1.354 2.974,-2.656 4.655,-3.825 2.421,-1.654 5.221,-3.157 8.309,-3.419 -2.011,2.28 -3.654,4.42 -5.406,6.592 -1.743,2.15 -3.535,4.288 -5.525,6.334 -1.988,2.038 -4.162,4.019 -6.761,5.633 -1.32,0.78 -2.718,1.505 -4.292,1.894 -0.011,0.004 -0.023,0.004 -0.034,0.008 -1.845,0.506 -3.783,0.533 -5.531,0.227 -2.257,-0.409 -4.393,-1.107 -6.371,-2.134 3.731,0.398 7.588,0.73 10.678,-0.464 0.018,-0.016 0.036,-0.028 0.053,-0.047 0.977,-0.861 1.868,-1.852 2.77,-2.827 1.007,-1.119 2.022,-2.273 3.061,-3.429 0.445,-1.271 0.699,-2.627 0.751,-3.994 0.204,-3.878 -1.054,-7.885 -3.594,-10.895 -1.29,-1.483 -2.89,-2.753 -4.763,-3.633 -0.555,-0.272 -1.139,-0.498 -1.733,-0.701 2.942,2.095 4.082,4.915 2.572,7.331 -3.292,5.267 -11.522,7.106 -19.261,12.444 -2.87,1.978 -4.223,3.856 -5.392,5.438 3.037,0.791 6.064,2.178 8.33,4.602 2.399,2.469 3.683,6.016 3.547,9.484 -0.137,3.474 -1.507,6.824 -3.717,9.412 -2.182,2.61 -5.273,4.443 -8.531,4.939 3.067,-1.189 5.59,-3.293 7.411,-5.818 1.801,-2.538 2.922,-5.549 3.011,-8.595 0.137,-3.042 -0.861,-6.079 -2.8,-8.487 -1.874,-2.33 -4.483,-4.05 -7.306,-5.468 -1.358,1.834 -2.502,3.256 -5.534,3.957 0,0 -1.694,0.3 -2.498,0.236 -0.806,0.064 -2.79,-0.236 -2.79,-0.236 -3.032,-0.701 -4.175,-2.123 -5.536,-3.957 m 165.277,-298.543 -87.197,1.296 c -0.268,-0.007 -0.519,-0.062 -0.742,-0.152 -0.062,-1.076 -0.121,-2.16 -0.178,-3.24 0.26,-0.152 0.544,-0.26 0.866,-0.265 l 86.373,-1.286 c 0.293,1.219 0.586,2.44 0.878,3.647 m -2.622,-11.042 -85.906,1.28 c -0.062,-1.211 -0.125,-2.426 -0.186,-3.644 0.028,-0.001 0.048,-0.016 0.074,-0.016 l 85.179,-1.267 c 0.279,1.22 0.557,2.438 0.839,3.647 m -2.5,-11.044 -83.961,1.251 c -0.059,-1.215 -0.118,-2.434 -0.177,-3.66 l 83.337,-1.239 c 0.266,1.22 0.531,2.438 0.801,3.648 m -2.388,-11.047 -82.092,1.223 c -0.055,-1.218 -0.111,-2.433 -0.163,-3.66 l 81.488,-1.212 c 0.254,1.222 0.512,2.436 0.767,3.649 m -9.188,-47.848 c 0.215,1.223 0.429,2.435 0.644,3.648 l -75.366,1.122 c -0.042,-1.217 -0.09,-2.437 -0.136,-3.657 z m 6.175,33.151 c 0.241,1.224 0.486,2.437 0.731,3.651 l -80.299,1.192 c -0.053,-1.211 -0.105,-2.432 -0.154,-3.657 z M 394.653,46.221 c -0.047,-1.219 -0.093,-2.437 -0.141,-3.658 l 76.409,-1.139 c 0.224,1.219 0.444,2.438 0.667,3.65 z m 78.324,6.254 c 0.232,1.218 0.466,2.437 0.698,3.65 l -78.58,1.169 c -0.05,-1.218 -0.097,-2.438 -0.148,-3.659 z M 382.954,27.267 c 3.994,108.352 8.843,179.749 20.083,220.988 3.325,17.627 7.349,31.539 12.188,39.122 16.276,19.935 27.976,44.137 32.371,66.574 2.056,15.32 3.908,51.695 3.797,75.619 l -0.085,2.925 c -0.407,1.892 -6.416,5.855 -12.411,9.405 3.374,-5.555 4.957,-13.012 4.723,-22.354 0.045,0.246 0.104,0.492 0.146,0.738 -1.759,-24.609 4.195,-85.554 -31.616,-122.214 -28.347,-29.021 -35.331,-87.113 -34.343,-121.616 0.349,-4.52 0.739,-8.817 1.161,-12.806 0.322,-2.82 0.657,-5.669 1.021,-8.585 0.886,-6.577 1.876,-11.816 2.937,-15.177 0.011,-0.025 0.017,-0.049 0.024,-0.076 0.011,-0.034 0.021,-0.075 0.031,-0.106 -0.002,0 -0.005,-0.002 -0.009,-0.002 0.01,-0.056 0.035,-0.115 0.035,-0.175 0,-3.636 -23.257,-6.584 -51.944,-6.584 -0.835,0 -1.663,0.003 -2.487,0.007 -0.823,-0.004 -1.652,-0.007 -2.487,-0.007 -28.688,0 -51.943,2.948 -51.943,6.584 0,0.056 0.021,0.114 0.033,0.168 -0.018,0.005 -0.037,0.006 -0.057,0.009 1.083,3.351 2.092,8.674 2.994,15.371 0.364,2.902 0.697,5.741 1.018,8.552 0.422,3.996 0.813,8.298 1.166,12.83 0.985,34.501 -5.999,92.592 -34.347,121.613 -29.483,30.184 -30.655,76.808 -31.129,106.084 -2.907,15.944 -2.156,28.148 2.259,36.471 -5.221,-3.187 -9.93,-6.465 -10.287,-8.134 l -0.085,-2.922 c -0.109,-23.918 1.739,-60.282 3.796,-75.611 4.393,-22.436 16.094,-46.643 32.373,-66.581 7.311,-11.459 12.766,-37.339 16.753,-68.731 6.997,-42.826 10.702,-105.489 13.868,-191.379 z M 261.363,31.46 c -0.045,1.223 -0.09,2.44 -0.135,3.659 l -75.359,-1.123 c 0.213,-1.215 0.429,-2.428 0.641,-3.649 z m -0.855,22.151 c -0.048,1.221 -0.096,2.444 -0.147,3.658 L 181.787,56.1 c 0.234,-1.21 0.466,-2.429 0.699,-3.649 z m -76.634,-8.563 c 0.223,-1.212 0.443,-2.431 0.667,-3.651 l 76.404,1.139 c -0.048,1.223 -0.095,2.439 -0.141,3.657 z m -3.536,18.452 79.716,1.185 c -0.051,1.222 -0.103,2.442 -0.155,3.657 l -80.295,-1.196 c 0.245,-1.212 0.491,-2.422 0.734,-3.646 m -2.247,11.048 81.485,1.214 c -0.055,1.222 -0.111,2.438 -0.166,3.655 l -82.085,-1.222 c 0.255,-1.212 0.511,-2.424 0.766,-3.647 m -2.353,11.046 83.327,1.24 c -0.056,1.224 -0.115,2.441 -0.174,3.657 l -83.955,-1.249 c 0.268,-1.212 0.537,-2.427 0.802,-3.648 m -2.463,11.043 85.247,1.272 c -0.061,1.222 -0.123,2.443 -0.187,3.655 l -85.898,-1.277 c 0.281,-1.212 0.56,-2.429 0.838,-3.65 m -2.583,11.043 87.246,1.3 c -0.066,1.22 -0.133,2.444 -0.201,3.657 l -87.923,-1.31 c 0.293,-1.208 0.584,-2.426 0.878,-3.647 m -2.712,11.042 89.328,1.332 c -0.074,1.219 -0.145,2.444 -0.218,3.656 l -90.033,-1.341 c 0.308,-1.209 0.616,-2.428 0.923,-3.647 m -2.853,11.041 90.804,1.351 c 0.242,0.003 0.471,0.063 0.681,0.149 -0.072,1.143 -0.148,2.286 -0.224,3.421 -0.166,0.045 -0.331,0.093 -0.511,0.089 l -91.724,-1.364 c 0.326,-1.21 0.651,-2.425 0.974,-3.646 m -3.004,11.038 92.419,1.373 c 0.508,0.009 0.961,0.221 1.288,0.559 -0.063,0.891 -0.127,1.779 -0.19,2.662 -0.322,0.251 -0.716,0.423 -1.152,0.44 l -93.395,-1.391 c 0.345,-1.208 0.687,-2.422 1.03,-3.643 m -3.175,11.034 94.206,1.4 c 0.928,0.016 1.656,0.728 1.761,1.625 -0.02,0.228 -0.038,0.456 -0.056,0.685 -0.214,0.771 -0.892,1.349 -1.731,1.349 H 253.1 l -95.244,-1.416 c 0.364,-1.209 0.73,-2.417 1.092,-3.643 m -3.369,11.031 96.187,1.432 c 1.011,0.013 1.817,0.843 1.802,1.852 -0.014,1.004 -0.83,1.806 -1.828,1.806 h -0.028 l -97.289,-1.45 c 0.386,-1.199 0.77,-2.419 1.156,-3.64 m -3.586,11.028 98.384,1.462 c 1.012,0.017 1.818,0.85 1.803,1.857 -0.014,1.004 -0.83,1.805 -1.827,1.805 h -0.029 l -99.57,-1.484 c 0.415,-1.203 0.829,-2.415 1.239,-3.64 m -3.831,11.023 100.827,1.501 c 1.012,0.018 1.82,0.848 1.803,1.857 -0.014,1.011 -0.915,1.774 -1.857,1.801 l -102.098,-1.519 c 0.443,-1.201 0.885,-2.415 1.325,-3.64 m -4.124,11.021 103.565,1.542 c 1.01,0.013 1.817,0.845 1.802,1.853 -0.016,1.015 -0.9,1.792 -1.858,1.806 l -104.946,-1.563 c 0.482,-1.2 0.96,-2.411 1.437,-3.638 m -4.477,11.015 106.653,1.585 c 1.011,0.017 1.818,0.848 1.803,1.858 -0.016,1.013 -0.884,1.801 -1.858,1.801 l -108.167,-1.609 c 0.525,-1.193 1.047,-2.406 1.569,-3.635 m -4.91,11.007 110.175,1.641 c 1.01,0.017 1.818,0.849 1.803,1.858 -0.016,1.001 -0.832,1.8 -1.829,1.8 h -0.028 l -111.858,-1.662 c 0.58,-1.194 1.159,-2.408 1.737,-3.637 m -5.48,11 114.267,1.703 c 0.736,0.012 1.356,0.462 1.636,1.094 -0.146,0.699 -0.294,1.393 -0.445,2.08 -0.325,0.296 -0.746,0.484 -1.217,0.484 h -0.028 l -116.181,-1.729 c 0.656,-1.185 1.313,-2.393 1.968,-3.632 m -6.259,10.991 119.137,1.772 c 0.246,0.004 0.48,0.06 0.691,0.151 -0.302,1.19 -0.61,2.36 -0.923,3.507 l -121.214,-1.808 c 0.772,-1.175 1.541,-2.379 2.309,-3.622 m -7.483,10.97 124.177,1.846 c -0.411,1.252 -0.831,2.463 -1.256,3.642 l -125.803,-1.872 c 0.963,-1.154 1.923,-2.358 2.882,-3.616 m -14.127,14.528 c 1.443,-1.07 2.881,-2.276 4.318,-3.595 l 129.713,1.934 c -0.591,1.271 -1.196,2.484 -1.813,3.631 z m 9.739,21.928 c 6.683,18.541 13.145,37.152 19.379,55.836 6.282,18.67 12.365,37.402 18.4,56.15 5.972,18.769 11.905,37.549 17.634,56.396 5.776,18.83 11.331,37.734 16.664,56.705 -6.68,-18.541 -13.138,-37.154 -19.374,-55.838 -6.285,-18.668 -12.365,-37.401 -18.406,-56.147 -5.976,-18.769 -11.907,-37.549 -17.638,-56.395 -5.78,-18.829 -11.33,-37.732 -16.659,-56.707 m 74.48,255.822 0.366,-1.87 c 0.083,0.037 0.166,0.072 0.248,0.107 0.008,0.003 0.014,0.003 0.023,0.007 z m 2.57,-7.081 c 0.468,-10.572 8.143,-47.922 14.794,-77.798 l 1.003,34.265 z m 0.25,-176.153 c 1.944,-1.553 3.987,-2.712 6.121,-3.366 5.657,-1.738 8.933,-0.435 10.818,1.907 -0.459,4.333 -0.897,9.536 -1.296,15.249 -0.753,-0.791 -1.817,-1.35 -2.751,-1.507 -1.05,-0.195 -1.972,-0.121 -2.781,0.023 -3.152,0.696 -5.277,2.17 -7.376,3.639 -0.982,0.76 -1.916,1.518 -2.814,2.31 -1.261,-0.937 -2.153,-2.233 -2.821,-3.571 -1.036,-2.19 -1.411,-4.625 -1.135,-6.927 0.281,-2.31 1.257,-4.503 2.836,-6.432 0.367,-0.46 0.773,-0.898 1.199,-1.325 m -20.222,57.225 c 0,-16.863 4.771,-35.869 12.483,-48.171 0.055,2.58 0.91,5.11 2.428,7.139 0.914,1.254 2.151,2.284 3.546,2.953 0.164,0.079 0.343,0.125 0.515,0.19 -0.547,0.521 -1.086,1.057 -1.612,1.63 -1.779,1.808 -3.324,3.852 -4.658,6.003 -2.648,4.324 -4.343,9.129 -5.207,13.969 -1.776,9.718 -0.818,19.426 1.284,28.669 0.143,-9.484 0.467,-18.947 2.874,-27.712 1.266,-4.338 2.883,-8.541 5.414,-12.135 1.263,-1.785 2.559,-3.55 4.138,-5.065 1.472,-1.57 3.288,-3.057 5.012,-4.339 1.698,-1.286 3.643,-2.462 5.133,-2.784 0.347,-0.073 0.621,-0.068 0.737,-0.06 0.013,0.002 0,-0.002 0.008,-0.002 0.026,0.056 0.066,0.146 0.102,0.318 0.045,0.284 0.08,0.669 0.058,1.104 -0.082,1.777 -0.798,3.924 -1.656,5.929 -0.448,1.046 -0.904,1.962 -1.467,3.05 -0.534,1.074 -1.059,2.207 -1.541,3.355 -0.939,2.313 -1.732,4.752 -2.019,7.297 -0.301,2.535 -0.186,5.117 0.34,7.587 1.239,4.839 4.045,8.976 7.602,12.008 -1.515,4.609 -5.974,7.291 -9.945,7.011 -1.021,-0.671 -1.958,-1.505 -2.737,-2.547 -1.248,-1.64 -2.076,-3.721 -2.533,-5.933 -0.459,-2.22 -0.564,-4.572 -0.41,-6.929 -0.749,2.238 -1.279,4.595 -1.415,7.058 -0.132,2.45 0.129,5.044 1.131,7.53 0.977,2.488 2.731,4.801 4.958,6.506 1.669,1.292 3.543,2.255 5.476,2.979 -1.06,1.438 -2.296,2.768 -3.723,3.894 -2.338,1.839 -5.16,3.22 -8.172,3.461 -2.996,0.332 -6.168,-1.048 -7.94,-3.768 0.694,1.438 1.777,2.733 3.18,3.636 1.391,0.923 3.073,1.403 4.758,1.505 3.398,0.214 6.765,-0.865 9.702,-2.553 2.947,-1.708 5.535,-4.085 7.538,-6.964 0.205,-0.293 0.37,-0.613 0.561,-0.917 0.052,4.403 0.178,8.334 0.389,11.563 -0.216,0.942 -1.026,4.489 -2.192,9.697 -19.213,10.057 -32.14,-12.016 -32.14,-36.162 m 141.278,76.108 c -0.01,1.201 -0.405,2.329 -1.351,3.085 -10.037,8.029 -54.279,10.086 -74.625,-10.411 -7.414,-7.467 -13.681,-16.283 -18.715,-23.363 -2.945,-4.144 -5.131,-7.175 -6.873,-9.177 -0.138,-0.696 -0.249,-1.429 -0.374,-2.143 3.611,4.01 12.688,13.851 22.642,22.842 0.826,0.85 1.632,1.682 2.506,2.583 3.361,3.468 7.069,6.202 10.966,8.369 9.597,6.714 21.925,7.883 33.052,7.152 9.715,-0.277 18.112,-2.142 22.891,-3.63 3.71,-0.776 6.369,-0.821 7.921,-0.134 0.334,0.349 0.635,0.732 0.883,1.133 0.464,0.75 0.797,1.622 0.963,2.502 10e-4,0.026 0.005,0.054 0.006,0.08 0.024,0.411 0.054,0.785 0.108,1.112 M 201.653,418.047 c -2.67,-3.81 -4.568,-8.051 -4.962,-12.371 -0.358,-4.42 0.829,-8.715 2.905,-12.643 0.523,-0.986 1.081,-1.951 1.693,-2.944 0.596,-0.968 1.246,-2.139 1.789,-3.235 0.044,-0.092 0.085,-0.184 0.128,-0.275 -0.502,9.505 -0.874,19.57 -1.055,28.925 -0.001,0.025 -0.005,0.042 -0.006,0.065 -0.065,0.88 -0.242,1.702 -0.492,2.478 m 95.824,43.517 c -0.086,1.515 -0.982,2.838 -1.82,4.052 -0.877,1.223 -1.897,2.334 -2.986,3.376 -2.226,2.032 -4.78,3.708 -7.514,5.008 -5.475,2.572 -11.713,3.643 -17.778,2.83 -6.061,-0.829 -11.738,-3.382 -16.666,-6.798 -2.47,-1.719 -4.741,-3.688 -6.886,-5.763 -2.105,-2.125 -4.031,-4.404 -5.788,-6.796 4.077,4.31 8.491,8.274 13.449,11.384 4.965,3.045 10.404,5.417 16.136,6.162 5.694,0.81 11.6,-0.138 16.968,-2.296 2.684,-1.094 5.223,-2.577 7.498,-4.404 1.141,-0.904 2.23,-1.893 3.19,-3 0.481,-0.554 0.931,-1.133 1.326,-1.751 0.386,-0.614 0.784,-1.261 0.871,-2.004 m -57.946,-27.855 c 3.896,-1.046 7.911,-1.743 11.952,-2.028 2.015,-0.217 4.041,-0.238 6.064,-0.306 2.021,0.06 4.051,0.035 6.057,0.258 8.046,0.615 16.027,2.548 23.205,6.262 6.441,3.273 12.206,7.915 16.997,13.592 -2.024,-1.309 -4.626,-2.21 -5.389,-2.459 L 298.303,449 c -4.14,-0.776 -18.539,-3.232 -34.972,-3.232 -10.292,0 -21.366,0.988 -31.234,3.928 -0.681,-0.383 -1.486,-0.827 -2.392,-1.322 -0.091,-2.591 0.432,-5.147 1.539,-7.406 1.692,-3.539 4.608,-6.497 8.287,-7.259 m 44.007,-282.262 c 0.405,-0.93 1.479,-1.353 2.408,-0.948 10.755,4.691 29.755,6.423 47.466,5.844 15.809,-0.516 30.591,-2.875 37.567,-6.615 0.273,-0.151 0.571,-0.222 0.861,-0.222 0.652,0 1.286,0.353 1.613,0.968 0.208,0.38 0.235,0.798 0.159,1.193 0.258,0.872 -0.138,1.813 -0.992,2.189 -9.38,4.088 -24.243,6.039 -39.349,6.254 l 0.004,-0.087 c -18.109,0.589 -37.452,-1.222 -48.791,-6.167 -0.927,-0.405 -1.349,-1.484 -0.946,-2.409 m 0.541,12.586 c 0.397,-0.927 1.47,-1.357 2.401,-0.959 11.139,4.774 29.387,6.544 46.458,5.998 15.788,-0.503 30.571,-2.99 37.777,-6.927 0.278,-0.152 0.58,-0.223 0.877,-0.223 0.648,0 1.273,0.346 1.607,0.953 0.315,0.576 0.258,1.235 -0.047,1.769 0.045,0.748 -0.358,1.479 -1.087,1.792 -9.794,4.199 -24.47,6.194 -39.269,6.403 l 0.004,-0.074 c -17.487,0.548 -36.09,-1.325 -47.762,-6.329 -0.928,-0.399 -1.357,-1.472 -0.959,-2.403 m 0.54,12.591 c 0.393,-0.931 1.465,-1.365 2.397,-0.978 11.432,4.827 28.978,6.653 45.447,6.155 15.74,-0.475 30.499,-3.072 37.992,-7.235 0.281,-0.158 0.586,-0.231 0.887,-0.231 0.642,0 1.266,0.339 1.601,0.942 0.407,0.734 0.232,1.607 -0.337,2.167 -0.041,0.671 -0.432,1.297 -1.096,1.576 -10.239,4.317 -24.723,6.346 -39.186,6.543 l 10e-4,-0.06 c -16.828,0.503 -34.704,-1.411 -46.731,-6.483 -0.932,-0.392 -1.369,-1.468 -0.975,-2.396 m 0.541,12.587 c 0.386,-0.933 1.458,-1.379 2.392,-0.991 11.749,4.879 28.599,6.754 44.436,6.303 15.74,-0.442 30.473,-3.177 38.207,-7.537 0.286,-0.162 0.592,-0.239 0.899,-0.239 0.638,0 1.257,0.336 1.594,0.934 0.484,0.861 0.188,1.936 -0.645,2.446 -0.079,0.632 -0.457,1.212 -1.086,1.474 -9.944,4.129 -24.471,6.27 -39.102,6.512 v -0.022 c -16.756,0.379 -34.267,-1.741 -45.707,-6.49 -0.933,-0.387 -1.375,-1.457 -0.988,-2.39 m 0.541,12.583 c 0.383,-0.932 1.449,-1.384 2.385,-0.999 11.382,4.654 27.772,6.767 43.428,6.445 15.294,-0.316 29.886,-2.957 38.424,-7.839 0.285,-0.161 0.597,-0.24 0.903,-0.24 0.635,0 1.253,0.33 1.592,0.922 0.502,0.878 0.197,1.996 -0.682,2.496 -0.08,0.048 -0.173,0.09 -0.252,0.136 -0.085,0.63 -0.466,1.21 -1.098,1.469 -10.333,4.223 -24.679,6.408 -39.021,6.638 v -0.005 c -16.149,0.321 -32.983,-1.853 -44.679,-6.633 -0.934,-0.384 -1.383,-1.454 -1,-2.39 m 0.542,12.587 c 0.378,-0.937 1.447,-1.39 2.379,-1.013 11.396,4.591 27.247,6.701 42.424,6.437 0.088,-0.001 0.178,-0.001 0.267,-0.003 15.23,-0.293 29.75,-2.986 38.366,-7.979 0.288,-0.168 0.603,-0.246 0.915,-0.246 0.632,0 1.246,0.326 1.584,0.911 0.508,0.875 0.21,1.994 -0.666,2.5 -0.18,0.106 -0.375,0.2 -0.558,0.306 -0.084,0.633 -0.469,1.213 -1.104,1.468 -10.72,4.318 -24.888,6.545 -38.943,6.762 v -0.003 c -15.549,0.257 -31.734,-1.957 -43.652,-6.759 -0.936,-0.377 -1.39,-1.445 -1.012,-2.381 m 0.542,12.586 c 0.375,-0.94 1.437,-1.4 2.376,-1.024 11.584,4.602 26.815,6.751 41.411,6.553 v -0.004 c 5.241,-0.086 10.51,-0.472 15.616,-1.164 9.211,-1.303 17.408,-3.669 23.231,-7.086 0.293,-0.173 0.609,-0.255 0.926,-0.255 0.625,0 1.238,0.326 1.578,0.907 0.511,0.871 0.219,1.992 -0.653,2.502 -0.278,0.165 -0.575,0.316 -0.861,0.475 -0.085,0.64 -0.472,1.217 -1.114,1.472 -6.605,2.625 -14.245,4.48 -22.247,5.605 -5.303,0.777 -10.91,1.206 -16.613,1.276 -14.957,0.183 -30.52,-2.074 -42.625,-6.881 -0.94,-0.371 -1.398,-1.436 -1.025,-2.376 m 0.542,12.586 c 0.367,-0.94 1.427,-1.407 2.37,-1.033 11.74,4.595 26.376,6.788 40.403,6.662 v -0.007 c 7.217,-0.114 14.523,-0.836 21.454,-2.175 6.822,-1.428 12.894,-3.543 17.606,-6.342 0.294,-0.175 0.614,-0.256 0.934,-0.256 0.626,0 1.232,0.321 1.573,0.894 0.517,0.869 0.231,1.993 -0.639,2.507 -0.377,0.225 -0.774,0.438 -1.167,0.654 -0.087,0.639 -0.478,1.215 -1.118,1.468 -5.005,1.96 -10.461,3.497 -16.142,4.632 -7.003,1.507 -14.73,2.302 -22.642,2.363 -14.372,0.108 -29.338,-2.192 -41.597,-6.995 -0.94,-0.37 -1.404,-1.431 -1.035,-2.372 m 0.542,12.586 c 0.366,-0.944 1.428,-1.411 2.367,-1.048 11.86,4.588 25.925,6.79 39.391,6.743 0.287,-10e-4 0.573,0 0.859,-0.002 8.016,-0.174 16.153,-1.174 23.861,-2.965 5.505,-1.429 10.482,-3.343 14.557,-5.792 0.296,-0.175 0.621,-0.26 0.941,-0.26 0.621,0 1.226,0.315 1.569,0.887 0.521,0.867 0.24,1.991 -0.627,2.513 -0.463,0.278 -0.979,0.518 -1.46,0.784 -0.078,0.653 -0.481,1.252 -1.139,1.504 -3.984,1.541 -8.195,2.8 -12.509,3.834 -7.673,2.064 -16.313,3.149 -25.25,3.235 -0.315,0.009 -0.627,0.009 -0.941,0.013 v -0.009 c -13.801,0.028 -28.194,-2.285 -40.572,-7.073 -0.943,-0.364 -1.412,-1.425 -1.047,-2.364 m 0.542,12.583 c 0.36,-0.945 1.422,-1.419 2.361,-1.056 11.948,4.56 25.468,6.799 38.383,6.838 0.317,10e-4 0.633,-0.002 0.948,-0.003 8.513,-0.188 17.232,-1.344 25.548,-3.474 4.826,-1.422 9.239,-3.251 12.997,-5.53 0.296,-0.182 0.623,-0.267 0.949,-0.267 0.617,0 1.221,0.312 1.565,0.881 0.523,0.865 0.248,1.987 -0.615,2.512 -0.567,0.341 -1.183,0.644 -1.769,0.966 -0.08,0.654 -0.485,1.247 -1.14,1.495 -3.483,1.328 -7.075,2.469 -10.729,3.429 -8.151,2.46 -17.405,3.71 -27.019,3.739 -0.293,0.006 -0.582,0.005 -0.875,0.007 v -0.002 c -13.239,-0.061 -27.083,-2.412 -39.547,-7.173 -0.945,-0.36 -1.418,-1.42 -1.057,-2.362 m 40.133,22.212 c -12.691,-0.153 -26.012,-2.55 -38.525,-7.27 -0.946,-0.354 -1.423,-1.412 -1.066,-2.357 0.355,-0.945 1.411,-1.427 2.357,-1.067 12.164,4.587 25.09,6.911 37.369,7.056 h 0.01 c 0.253,0.003 0.501,-0.007 0.754,-0.002 9.277,-0.202 18.895,-1.677 28.263,-4.396 3.852,-1.357 7.453,-3.003 10.685,-4.986 0.297,-0.183 0.628,-0.269 0.954,-0.269 0.614,0 1.217,0.311 1.561,0.872 0.529,0.863 0.257,1.988 -0.604,2.516 -0.666,0.408 -2.565,2.386 -3.217,2.633 -2.735,1.029 -5.515,1.916 -8.311,2.728 -8.777,3.059 -18.845,4.579 -29.386,4.534 -0.255,0.005 -0.503,0.003 -0.755,0.005 -0.024,0 -0.048,0.003 -0.072,0.003 l 0.336,9.015 c 0.037,0 0.07,-0.002 0.106,-0.002 9.415,-0.199 19.265,-1.794 29.065,-4.745 3.577,-1.348 6.963,-2.95 10.067,-4.872 0.3,-0.184 0.633,-0.274 0.962,-0.274 0.612,0 1.211,0.307 1.557,0.866 0.53,0.861 0.072,1.758 -0.594,2.519 -1.333,1.531 -2.881,2.562 -3.528,2.804 -2.436,0.904 -4.884,1.699 -7.335,2.439 -0.524,0.194 -1.031,0.413 -1.563,0.594 l -1.879,0.583 c -8.171,2.572 -18.189,3.837 -27.685,3.735 l 0.592,5.852 c 7.735,-0.619 18.069,-2.061 27.131,-3.559 0.437,1.268 0.553,2.997 -0.177,5.358 -2.043,6.613 -8.894,12.764 -11.068,13.059 -6.509,-0.861 -12.635,-0.719 -15.994,-0.521 -4.021,-0.234 -11.99,-0.4 -19.836,1.152 -2.815,-1.507 -8.228,-6.906 -10.005,-12.658 -1.041,-3.367 -0.369,-5.457 0.523,-6.735 9.628,1.622 21.095,3.239 29.426,3.904 l -0.592,-5.852 0.381,0.004 c -12.155,-0.246 -25.357,-2.691 -37.881,-7.355 -0.946,-0.355 -1.426,-1.409 -1.074,-2.354 0.352,-0.947 1.402,-1.43 2.352,-1.077 12.17,4.533 25.713,6.902 37.466,7.136 l -0.247,-0.005 z m 31.099,176.635 c 0.394,0.617 0.844,1.196 1.324,1.75 0.959,1.108 2.049,2.096 3.191,3.002 2.275,1.827 4.815,3.31 7.5,4.404 5.372,2.156 11.275,3.111 16.972,2.278 5.729,-0.777 11.183,-3.105 16.174,-6.111 4.97,-3.091 9.404,-7.032 13.405,-11.419 -1.714,2.426 -3.637,4.712 -5.729,6.852 -2.144,2.083 -4.442,4.019 -6.908,5.746 -4.961,3.381 -10.641,5.883 -16.692,6.743 -6.067,0.836 -12.309,-0.242 -17.785,-2.811 -2.737,-1.302 -5.288,-2.977 -7.516,-5.008 -1.09,-1.044 -2.11,-2.154 -2.987,-3.378 -0.84,-1.215 -1.735,-2.538 -1.821,-4.053 0.086,0.743 0.485,1.39 0.872,2.005 m 66.216,-22.601 c 1.11,2.259 1.632,4.815 1.54,7.405 -0.905,0.496 -1.711,0.94 -2.389,1.323 -9.869,-2.94 -20.947,-3.928 -31.238,-3.928 -16.432,0 -30.829,2.456 -34.97,3.232 l -0.114,0.028 c -0.763,0.249 -3.367,1.15 -5.39,2.459 4.793,-5.676 10.556,-10.318 16.998,-13.592 7.177,-3.714 15.158,-5.647 23.203,-6.262 2.008,-0.223 4.038,-0.198 6.058,-0.258 2.024,0.068 4.051,0.089 6.064,0.306 4.041,0.285 8.058,0.982 11.952,2.028 1.021,0.214 1.978,0.607 2.873,1.124 l 0.33,0.207 c 2.169,1.358 3.92,3.496 5.083,5.928 m -217.103,16.558 c 1.459,1.925 3.027,4.126 4.459,6.141 5.074,7.139 11.39,16.021 18.906,23.593 20.954,21.112 66.67,18.869 77.067,10.552 1.419,-1.135 2.026,-2.746 2.05,-4.432 1.961,-3.815 5.518,-22.22 4.347,-30.414 1.486,-0.889 2.642,-2.169 3.397,-3.526 0.844,-1.508 1.314,-3.09 1.615,-4.655 0.574,-3.137 0.519,-6.254 0.095,-9.276 -0.179,3.037 -0.761,6.054 -1.851,8.763 -0.549,1.345 -1.246,2.607 -2.119,3.612 -0.686,0.794 -1.479,1.383 -2.32,1.745 -0.063,-0.071 -0.123,-0.154 -0.193,-0.215 l -0.257,-0.223 h -0.34 c -1.58,0 -4.755,3.902 -8.939,10.989 -6.811,11.53 -24.146,20.102 -47.528,13.252 -12.509,-3.663 -27.167,-18.402 -37.871,-29.163 -5.647,-5.68 -10.17,-10.21 -13.195,-12.034 l -0.122,-4.15 c 3.801,3.21 10.385,7.125 19.5,12.132 0.015,0.009 0.028,0.019 0.043,0.029 l 0.002,-0.003 c 0.483,0.264 0.951,0.523 1.448,0.795 0.728,0.396 1.383,0.755 1.995,1.091 2.055,3.177 28.255,42.23 60.804,23.811 6.71,-3.796 8.871,-8.592 10.609,-12.448 1.18,-2.617 2.199,-4.877 4.355,-6.233 1.522,-0.956 1.734,-2.013 1.645,-2.731 -0.109,-0.889 -0.783,-1.709 -1.696,-2.435 -3.835,-6.812 -9.609,-12.634 -16.48,-16.69 -3.629,-2.275 -7.655,-3.81 -11.716,-5.129 -2.067,-0.528 -4.125,-1.146 -6.238,-1.441 -1.051,-0.175 -2.101,-0.383 -3.158,-0.527 l -3.181,-0.317 c -4.252,-0.294 -8.525,-0.268 -12.752,0.244 -4.218,0.509 -8.422,1.305 -12.452,2.75 -0.962,0.288 -2.173,0.788 -3.12,1.417 -0.756,0.475 -1.421,1.05 -2.045,1.658 -4.898,-1.616 -8.234,-5.913 -9.062,-10.518 -0.968,-5.076 0.83,-10.315 4.175,-14.321 1.611,-2.07 3.619,-3.863 5.794,-5.452 2.144,-1.639 4.503,-3.028 6.945,-4.304 4.891,-2.542 10.146,-4.528 15.516,-6.422 -5.685,0.405 -11.333,1.654 -16.712,3.832 -5.363,2.148 -10.533,5.349 -14.393,10.055 -1.864,2.374 -3.415,5.1 -4.177,8.113 -0.716,2.994 -0.86,6.22 0.092,9.181 0.834,2.978 2.629,5.639 4.976,7.534 1.195,0.927 2.53,1.64 3.922,2.126 0.84,0.278 1.703,0.437 2.567,0.519 -0.069,0.07 -0.147,0.131 -0.214,0.202 -1.509,1.673 -2.638,3.62 -3.368,5.686 -0.866,2.461 -1.094,5.107 -0.722,7.622 -0.054,-0.029 -0.1,-0.055 -0.156,-0.084 -0.42,-0.232 -0.923,-0.506 -1.461,-0.8 -9.557,-5.213 -13.184,-17.23 -10.843,-35.79 7.761,-15.101 27.442,-26.878 43.565,-25.22 -5.352,-10.539 -3.212,-33.203 3.391,-38.251 -1.993,31.611 14.384,36.247 17.82,40.884 0,0 4.611,-11.458 -2.413,-18.242 -7.027,-6.785 -13.612,-23.137 -7.027,-30.767 6.587,-7.63 32.493,-12.899 18.881,-22.996 -13.31,-9.875 -35.644,-1.727 -11.144,-39.367 -1.177,10.063 -2.924,17.234 -5.35,19.608 0,0 8.478,1.744 19.462,3.685 -1.144,2.776 -1.188,6.044 -0.015,9.64 1.494,4.58 4.98,9.408 8.659,12.68 -10.323,4.755 -16.442,15.705 -16.442,15.705 9.136,0.572 33.114,1.637 42.765,0.622 9.653,1.015 33.631,-0.05 42.766,-0.622 0,0 -7.122,-12.777 -18.977,-16.726 -0.063,-0.017 -0.128,-0.032 -0.192,-0.051 3.661,-3.27 7.123,-8.081 8.612,-12.64 0.978,-2.991 1.123,-5.763 0.486,-8.212 12.066,-2.091 21.735,-4.081 21.735,-4.081 -2.425,-2.374 -4.168,-9.545 -5.35,-19.608 24.501,37.64 2.167,29.492 -11.143,39.367 -13.612,10.097 12.295,15.366 18.879,22.996 6.589,7.63 0,23.982 -7.024,30.767 -7.026,6.784 -2.415,18.242 -2.415,18.242 3.436,-4.637 19.816,-9.273 17.822,-40.884 6.604,5.048 8.74,27.712 3.39,38.251 14.969,-1.538 33.006,8.502 41.722,22.03 6.304,27.363 -10.561,39.833 -10.617,39.864 0.372,-2.515 0.146,-5.161 -0.723,-7.622 -0.729,-2.066 -1.858,-4.013 -3.368,-5.686 -0.044,-0.048 -0.097,-0.091 -0.142,-0.137 10e-4,0 0.002,0 0.005,-0.002 1.39,-0.486 2.725,-1.2 3.92,-2.126 2.347,-1.894 4.141,-4.555 4.977,-7.534 0.951,-2.962 0.809,-6.187 0.091,-9.181 -0.76,-3.013 -2.311,-5.739 -4.178,-8.114 -3.857,-4.706 -9.029,-7.907 -14.389,-10.056 -5.381,-2.175 -11.032,-3.426 -16.714,-3.829 5.37,1.892 10.625,3.88 15.516,6.421 2.441,1.277 4.8,2.666 6.946,4.304 2.172,1.588 4.181,3.382 5.793,5.452 3.346,4.006 5.143,9.245 4.174,14.322 -0.699,3.897 -3.198,7.577 -6.915,9.602 -0.526,-0.48 -1.082,-0.935 -1.7,-1.325 -0.944,-0.629 -2.158,-1.129 -3.12,-1.417 -4.028,-1.445 -8.231,-2.241 -12.448,-2.75 -4.229,-0.512 -8.504,-0.538 -12.754,-0.244 l -3.183,0.317 c -1.055,0.144 -2.104,0.352 -3.156,0.527 -2.115,0.295 -4.172,0.913 -6.237,1.441 -4.059,1.319 -8.088,2.854 -11.716,5.129 -6.874,4.056 -12.647,9.878 -16.481,16.691 -0.915,0.725 -1.588,1.545 -1.697,2.434 -0.091,0.718 0.124,1.775 1.648,2.731 2.155,1.356 3.172,3.616 4.351,6.233 1.737,3.856 3.901,8.652 10.61,12.448 32.536,18.414 58.742,-20.626 60.803,-23.809 0.614,-0.338 1.271,-0.697 2.001,-1.095 9.901,-5.406 16.98,-9.565 20.989,-12.95 l -0.124,4.149 c -3.025,1.824 -7.546,6.354 -13.195,12.032 -10.702,10.763 -25.36,25.502 -37.871,29.165 -23.383,6.847 -40.717,-1.723 -47.527,-13.252 -4.185,-7.087 -7.357,-10.989 -8.939,-10.989 h -0.339 l -0.258,0.223 c -0.069,0.061 -0.129,0.144 -0.193,0.215 -0.84,-0.362 -1.635,-0.951 -2.319,-1.745 -0.873,-1.005 -1.57,-2.267 -2.119,-3.612 -1.091,-2.709 -1.672,-5.726 -1.85,-8.763 -0.427,3.022 -0.479,6.139 0.094,9.276 0.299,1.565 0.769,3.147 1.616,4.655 0.752,1.357 1.91,2.637 3.396,3.526 -1.17,8.194 2.386,26.599 4.345,30.414 0.028,1.686 0.633,3.297 2.051,4.432 10.432,8.347 56.499,10.396 77.737,-11.002 7.608,-7.662 13.785,-16.506 18.745,-23.614 1.264,-1.807 2.627,-3.775 3.918,-5.535 -11.828,47.886 -55.07,53.257 -98.819,54.276 -0.426,-1.159 -1.139,-1.966 -1.796,-2.496 -1.806,-1.45 -4.579,-1.937 -7.471,-1.937 -4.889,0 -10.12,1.382 -11.676,1.827 -1.56,-0.445 -6.79,-1.827 -11.681,-1.827 -2.892,0 -5.661,0.487 -7.469,1.937 -0.66,0.53 -1.37,1.337 -1.797,2.496 -43.79,-1.019 -87.068,-6.404 -98.851,-54.411 m 102.133,57.003 c -0.096,-1.331 0.379,-1.893 0.803,-2.234 0.018,-0.013 0.039,-0.023 0.057,-0.035 0.206,3.631 0.423,7.222 0.418,10.803 -0.024,3.674 -0.193,7.327 -0.61,10.939 -0.768,7.229 -2.542,14.29 -5.306,20.943 -1.394,3.322 -3.06,6.529 -4.947,9.606 -0.962,1.529 -1.966,3.033 -3.035,4.498 -1.084,1.501 -2.196,2.777 -3.435,4.385 -0.049,0.06 -0.246,0.335 -0.359,0.634 -0.155,0.691 -0.006,0.784 0.019,0.993 0.105,0.346 0.22,0.577 0.335,0.818 0.233,0.462 0.477,0.877 0.727,1.287 0.499,0.818 1.019,1.598 1.547,2.374 1.062,1.543 2.171,3.038 3.283,4.53 0.19,0.253 0.387,0.496 0.577,0.749 l -0.08,0.007 3.511,6.749 -0.041,0.003 c -7.028,-5.927 -13.022,-14.851 -13.641,-19.152 -0.109,-0.747 0,-1.086 0.047,-1.147 17.344,-11.563 20.765,-48 20.13,-56.75 m 0.724,82.885 6.617,-2.923 -4.008,5.478 c -0.18,-0.177 -0.368,-0.365 -0.573,-0.576 -0.528,-0.534 -1.18,-1.193 -2.036,-1.979 m 4.023,3.721 7.64,-10.438 h 10.198 l 0.47,0.84 -0.019,0.212 0.143,0.012 5.681,10.156 c -0.862,0.293 -1.983,0.577 -3.567,0.921 h -1.551 -12.157 -1.551 c -2.909,-0.63 -4.277,-1.07 -5.287,-1.703 m 27.82,-1.742 c -0.768,0.779 -1.305,1.323 -2.03,1.77 l -3.694,-6.601 7.292,3.221 -0.081,0.142 c -0.591,0.564 -1.079,1.054 -1.487,1.468 m -7.513,-62.497 c -2.701,-0.241 -5.404,-0.306 -8.108,-0.332 -2.702,0.031 -5.408,0.094 -8.108,0.336 -1.798,0.149 -3.595,0.352 -5.392,0.649 0.103,-1.105 0.186,-2.213 0.233,-3.318 0.031,-0.77 0.039,-1.541 0.044,-2.31 2.006,0.432 4.012,0.695 6.016,0.873 2.392,0.233 4.785,0.297 7.178,0.326 2.391,-0.027 4.782,-0.088 7.174,-0.321 1.918,-0.171 3.835,-0.418 5.751,-0.818 0.005,0.75 0.015,1.498 0.045,2.25 0.046,1.088 0.126,2.176 0.226,3.262 -1.685,-0.268 -3.37,-0.459 -5.059,-0.597 m 5.181,1.743 c 0.192,1.727 0.451,3.444 0.782,5.153 -1.666,-0.228 -3.331,-0.397 -4.999,-0.522 -3.013,-0.25 -6.027,-0.317 -9.041,-0.343 -3.014,0.03 -6.028,0.097 -9.042,0.348 -1.8,0.137 -3.601,0.323 -5.401,0.58 0.342,-1.748 0.609,-3.506 0.8,-5.272 1.836,0.309 3.669,0.517 5.504,0.668 2.7,0.241 5.406,0.307 8.108,0.336 2.704,-0.026 5.407,-0.092 8.108,-0.332 1.728,-0.14 3.455,-0.337 5.181,-0.616 m -29.311,11.632 c 0.53,-1.708 0.988,-3.436 1.365,-5.182 1.883,0.277 3.763,0.473 5.646,0.618 3.014,0.251 6.028,0.317 9.042,0.348 3.014,-0.028 6.028,-0.095 9.041,-0.344 1.758,-0.132 3.514,-0.315 5.27,-0.563 0.37,1.702 0.819,3.388 1.333,5.052 -1.88,-0.243 -3.759,-0.422 -5.639,-0.557 -3.324,-0.257 -6.649,-0.327 -9.974,-0.355 -3.327,0.033 -6.651,0.101 -9.976,0.36 -2.037,0.145 -4.073,0.344 -6.108,0.623 m -2.459,6.521 c 0.065,-0.145 0.137,-0.288 0.199,-0.434 0.702,-1.593 1.318,-3.222 1.869,-4.872 2.167,0.307 4.332,0.522 6.499,0.676 3.325,0.259 6.649,0.33 9.976,0.359 3.325,-0.027 6.65,-0.095 9.974,-0.354 2.025,-0.144 4.049,-0.341 6.071,-0.617 0.548,1.627 1.156,3.234 1.847,4.808 0.052,0.121 0.112,0.24 0.164,0.359 -2.373,-0.32 -4.747,-0.541 -7.12,-0.7 -3.634,-0.267 -7.27,-0.338 -10.907,-0.368 -3.635,0.035 -7.272,0.106 -10.906,0.372 -2.556,0.173 -5.11,0.41 -7.666,0.771 m -3.511,6.691 c 1.137,-1.837 2.157,-3.742 3.058,-5.694 2.704,0.398 5.412,0.647 8.119,0.83 1.316,0.096 2.633,0.145 3.949,0.197 l -1.788,3.432 c -1.021,0.048 -2.042,0.074 -3.064,0.147 -3.425,0.22 -6.848,0.544 -10.274,1.088 m -4.339,19.832 c -0.962,-1.583 -1.903,-3.175 -2.817,-4.772 -0.457,-0.795 -0.907,-1.596 -1.314,-2.395 -0.206,-0.398 -0.399,-0.8 -0.556,-1.178 -0.027,-0.071 -0.051,-0.138 -0.076,-0.205 3.267,-3.148 6.299,-6.821 8.83,-10.823 3.513,0.572 7.03,0.906 10.546,1.133 0.519,0.035 1.036,0.043 1.556,0.072 l -1.872,3.595 c -0.196,0.011 -0.391,0.013 -0.588,0.026 -4.257,0.262 -8.515,0.646 -12.772,1.38 3.977,0.688 7.957,1.063 11.937,1.323 l -1.979,3.798 c -3.931,0.267 -7.863,0.644 -11.794,1.295 3.497,0.58 6.993,0.945 10.491,1.207 l -3.275,6.287 -5.489,0.609 z m 20.723,5.72 -0.664,0.906 -15.125,1.439 -0.556,-0.909 -2.145,-4.121 10.966,-1.222 5.177,0.069 z m 2.04,-0.166 -2.224,-3.643 14.033,0.186 -2.529,3.457 z m 25.563,-24.843 c 2.518,3.97 5.528,7.613 8.772,10.739 -0.024,0.067 -0.046,0.134 -0.077,0.205 -0.156,0.378 -0.349,0.78 -0.553,1.178 -0.409,0.799 -0.86,1.6 -1.315,2.395 -0.915,1.597 -1.856,3.189 -2.818,4.772 l -1.859,3.04 -2.777,-0.769 0.219,0.003 -3.937,-7.856 c 3.316,-0.258 6.631,-0.617 9.948,-1.169 -3.723,-0.62 -7.445,-0.994 -11.165,-1.257 l -1.947,-3.881 c 3.738,-0.258 7.476,-0.627 11.215,-1.278 -4.182,-0.724 -8.364,-1.109 -12.545,-1.367 l -1.839,-3.671 c 0.214,-0.014 0.431,-0.015 0.646,-0.031 3.344,-0.214 6.687,-0.529 10.032,-1.053 m -13.859,-5.26 c 0.954,-0.045 1.908,-0.074 2.862,-0.141 2.548,-0.173 5.095,-0.41 7.64,-0.771 0.875,1.892 1.867,3.74 2.965,5.525 -3.211,-0.485 -6.426,-0.784 -9.64,-0.989 -0.687,-0.048 -1.372,-0.061 -2.061,-0.098 z m 4.753,24.474 0.166,0.698 -2.09,-0.165 -1.442,-0.115 -0.86,-0.069 0.193,-0.915 0.955,-4.506 0.674,-3.18 0.224,-1.054 0.251,1.075 0.721,3.079 z m -5.629,6.608 3.224,-4.405 3.682,0.047 8.749,2.42 -1.979,3.412 -13.572,-1.29 z m -15.385,-14.942 0.277,-0.972 0.18,0.952 0.632,3.383 0.83,4.434 0.164,0.881 -0.721,0.056 -1.273,0.095 -2.675,0.203 0.27,-0.945 1.377,-4.812 z m 1.531,-14.364 c 0.613,0.496 1.201,1.022 1.785,1.554 1.158,1.055 2.257,2.175 3.321,3.333 0.695,0.756 1.376,1.524 2.044,2.304 0.722,-0.788 1.458,-1.559 2.211,-2.32 1.132,-1.144 2.316,-2.246 3.564,-3.29 0.461,-0.384 0.918,-0.775 1.398,-1.142 -0.233,0.402 -0.494,0.782 -0.742,1.173 -0.702,1.11 -1.44,2.189 -2.225,3.226 -0.785,1.037 -1.604,2.039 -2.439,3.029 -0.296,0.35 -0.592,0.702 -0.892,1.049 l -0.103,2.448 -0.12,2.844 -0.152,3.629 -0.05,1.181 -0.156,-1.178 -0.486,-3.643 -0.375,-2.818 -0.324,-2.441 c -0.297,-0.359 -0.582,-0.723 -0.872,-1.084 -0.783,-0.982 -1.556,-1.974 -2.293,-3.001 -0.758,-1.052 -1.473,-2.153 -2.161,-3.284 -0.315,-0.519 -0.635,-1.029 -0.933,-1.569 m 27.856,33.866 4.423,-7.63 -0.538,-0.147 c 0.66,-0.852 1.328,-1.697 1.974,-2.561 1.113,-1.492 2.223,-2.987 3.284,-4.53 0.529,-0.776 1.047,-1.556 1.547,-2.374 0.25,-0.41 0.494,-0.825 0.728,-1.287 0.115,-0.241 0.229,-0.472 0.337,-0.818 0.023,-0.209 0.17,-0.302 0.016,-0.993 -0.114,-0.299 -0.308,-0.574 -0.36,-0.634 -1.237,-1.608 -2.349,-2.884 -3.434,-4.385 -1.068,-1.465 -2.073,-2.969 -3.033,-4.498 -1.891,-3.077 -3.553,-6.284 -4.949,-9.606 -0.544,-1.312 -1.021,-2.653 -1.488,-3.997 0.08,-0.014 0.161,-0.026 0.242,-0.044 -0.092,-0.018 -0.186,-0.031 -0.279,-0.049 -0.719,-2.076 -1.373,-4.174 -1.908,-6.309 0.099,-0.02 0.195,-0.035 0.291,-0.055 -0.106,-0.023 -0.211,-0.039 -0.315,-0.059 -0.851,-3.419 -1.476,-6.904 -1.85,-10.43 -0.417,-3.612 -0.585,-7.265 -0.609,-10.939 -0.004,-3.677 0.222,-7.361 0.434,-11.091 -1.877,6.231 -2.87,12.773 -2.889,19.366 -1.913,-0.4 -3.826,-0.646 -5.741,-0.816 -2.392,-0.231 -4.783,-0.293 -7.174,-0.319 -2.393,0.029 -4.786,0.09 -7.178,0.324 -2.001,0.18 -4.003,0.441 -6.006,0.871 -0.011,-6.524 -0.984,-12.999 -2.817,-19.172 2.859,-2.107 12.023,-0.595 16.749,0.816 v -2.475 2.475 c 4.782,-1.426 14.105,-2.96 16.857,-0.747 0.425,0.341 0.901,0.903 0.805,2.234 -0.636,8.75 2.786,45.19 20.138,56.755 0.04,0.056 0.149,0.395 0.04,1.142 -0.677,4.713 -8.115,15.274 -15.826,20.883 -0.528,0.383 -1.012,0.748 -1.471,1.099 m 104.119,-101.826 1.002,-34.262 c 6.651,29.871 14.325,67.216 14.794,77.792 z m 17.729,48.859 c 0.009,-0.003 0.015,-0.002 0.023,-0.005 0.084,-0.035 0.168,-0.07 0.248,-0.109 l 0.367,1.872 z m 3.041,-28.977 c 5.334,-18.971 10.889,-37.875 16.666,-56.705 5.729,-18.847 11.661,-37.627 17.633,-56.396 6.035,-18.748 12.115,-37.48 18.4,-56.15 6.233,-18.684 12.694,-37.295 19.378,-55.836 -5.329,18.975 -10.88,37.878 -16.659,56.707 -5.73,18.846 -11.661,37.626 -17.637,56.395 -6.041,18.746 -12.121,37.479 -18.407,56.147 -6.234,18.684 -12.693,37.297 -19.374,55.838 m -22.163,-153.96 c 1.888,-2.34 5.162,-3.643 10.819,-1.905 2.133,0.654 4.177,1.813 6.123,3.366 0.424,0.427 0.83,0.865 1.197,1.325 1.58,1.929 2.556,4.122 2.836,6.432 0.276,2.302 -0.099,4.737 -1.134,6.927 -0.666,1.338 -1.56,2.634 -2.821,3.571 -0.901,-0.792 -1.833,-1.55 -2.815,-2.31 -2.098,-1.469 -4.222,-2.943 -7.376,-3.639 -0.81,-0.144 -1.73,-0.218 -2.78,-0.023 -0.935,0.157 -1.997,0.716 -2.752,1.507 -0.397,-5.716 -0.836,-10.917 -1.297,-15.251 m -2.565,95.004 c -1.636,1.926 -3.663,4.782 -6.36,8.639 -4.921,7.051 -11.046,15.824 -18.542,23.374 -20.207,20.356 -65.503,18.697 -75.297,10.862 -0.947,-0.756 -1.34,-1.884 -1.351,-3.085 0.054,-0.327 0.084,-0.701 0.107,-1.114 l 0.005,-0.078 c 0.168,-0.88 0.5,-1.752 0.964,-2.502 0.249,-0.403 0.551,-0.784 0.888,-1.134 1.551,-0.686 4.21,-0.641 7.917,0.134 4.776,1.489 13.171,3.354 22.886,3.631 11.116,0.731 23.429,-0.436 33.025,-7.132 3.908,-2.17 7.629,-4.911 10.999,-8.389 0.879,-0.907 1.691,-1.744 2.522,-2.6 9.946,-8.987 19.014,-18.819 22.623,-22.825 -0.13,0.738 -0.245,1.499 -0.386,2.219 m 27.244,-84.489 c 7.712,12.302 12.484,31.308 12.484,48.171 0,24.147 -12.929,46.219 -32.139,36.16 -1.164,-5.19 -1.972,-8.73 -2.193,-9.685 0.211,-3.233 0.337,-7.167 0.389,-11.571 0.19,0.302 0.355,0.624 0.56,0.915 2.002,2.879 4.592,5.256 7.54,6.964 2.935,1.688 6.304,2.767 9.702,2.553 1.684,-0.102 3.366,-0.582 4.758,-1.505 1.401,-0.903 2.485,-2.198 3.177,-3.636 -1.771,2.72 -4.942,4.1 -7.939,3.768 -3.011,-0.241 -5.832,-1.622 -8.173,-3.461 -1.425,-1.126 -2.661,-2.456 -3.721,-3.894 1.935,-0.724 3.807,-1.687 5.475,-2.979 2.229,-1.705 3.98,-4.018 4.957,-6.506 1.003,-2.486 1.266,-5.08 1.132,-7.53 -0.135,-2.463 -0.665,-4.82 -1.416,-7.058 0.155,2.357 0.051,4.709 -0.407,6.929 -0.459,2.212 -1.286,4.293 -2.533,5.933 -0.604,0.804 -1.294,1.494 -2.048,2.078 -2.797,1.084 -6.251,0.322 -8.843,-1.822 0,-0.035 -0.007,-0.069 -0.007,-0.103 l -0.112,0.006 c -0.814,-0.692 -1.532,-1.521 -2.116,-2.475 -0.131,-10.63 -0.543,-22.548 -1.131,-33.69 0.044,0.09 0.085,0.183 0.128,0.273 0.542,1.096 1.195,2.267 1.79,3.235 0.611,0.993 1.169,1.958 1.694,2.944 2.076,3.928 3.262,8.223 2.904,12.643 -0.403,4.41 -2.367,8.739 -5.125,12.611 3.645,-3.047 6.523,-7.249 7.785,-12.172 0.525,-2.47 0.639,-5.052 0.342,-7.587 -0.289,-2.545 -1.081,-4.984 -2.022,-7.297 -0.482,-1.148 -1.006,-2.281 -1.54,-3.355 -0.564,-1.088 -1.019,-2.004 -1.469,-3.05 -0.858,-2.005 -1.572,-4.152 -1.654,-5.929 -0.02,-0.435 0.011,-0.82 0.057,-1.104 0.035,-0.172 0.076,-0.262 0.103,-0.318 0.008,0 -0.004,0.004 0.008,0.002 0.114,-0.008 0.387,-0.013 0.736,0.06 1.491,0.322 3.435,1.498 5.134,2.784 1.725,1.282 3.537,2.769 5.011,4.339 1.577,1.515 2.877,3.28 4.139,5.065 2.532,3.594 4.145,7.797 5.413,12.135 2.409,8.765 2.732,18.228 2.875,27.712 2.103,-9.243 3.059,-18.951 1.283,-28.669 -0.863,-4.84 -2.558,-9.645 -5.203,-13.969 -1.338,-2.151 -2.883,-4.195 -4.661,-6.003 -0.528,-0.573 -1.065,-1.109 -1.613,-1.63 0.174,-0.065 0.35,-0.111 0.517,-0.19 1.394,-0.669 2.63,-1.699 3.542,-2.953 1.521,-2.029 2.376,-4.559 2.43,-7.139 m 73.36,-107.14 c 1.44,1.318 2.882,2.524 4.327,3.596 l -132.239,1.969 c -0.621,-1.146 -1.226,-2.359 -1.815,-3.633 z m -9.817,-10.936 c 0.961,1.26 1.921,2.465 2.886,3.617 l -125.816,1.871 c -0.414,-1.141 -0.823,-2.316 -1.22,-3.529 0.175,-0.058 0.353,-0.116 0.549,-0.119 z m -7.485,-10.969 c 0.768,1.244 1.538,2.447 2.311,3.625 l -119.763,1.784 c -1.009,0.032 -1.841,-0.795 -1.856,-1.805 -0.014,-1.01 0.792,-1.84 1.803,-1.855 z m -6.262,-10.988 c 0.657,1.236 1.312,2.443 1.97,3.628 l -114.547,1.707 c -1.033,0.011 -1.844,-0.792 -1.856,-1.802 -0.016,-1.011 0.79,-1.838 1.801,-1.856 z m -5.482,-11 c 0.58,1.23 1.158,2.444 1.738,3.632 l -110.222,1.641 c -1.056,-0.012 -1.842,-0.787 -1.856,-1.8 -0.014,-1.009 0.793,-1.841 1.804,-1.858 z m -4.909,-11.01 c 0.522,1.228 1.044,2.441 1.568,3.638 l -106.531,1.583 c -1.077,0.067 -1.841,-0.792 -1.854,-1.801 -0.016,-1.01 0.789,-1.841 1.8,-1.858 z m -4.478,-11.014 c 0.478,1.226 0.959,2.438 1.435,3.639 l -103.307,1.538 c -1.002,0.041 -1.843,-0.793 -1.858,-1.806 -0.014,-1.008 0.793,-1.84 1.804,-1.853 z m -4.123,-11.019 c 0.438,1.223 0.882,2.441 1.324,3.638 l -100.462,1.495 c -1.022,0.021 -1.842,-0.79 -1.854,-1.801 -0.016,-1.009 0.789,-1.839 1.799,-1.857 z m -3.835,-11.024 c 0.413,1.223 0.824,2.436 1.238,3.642 l -97.927,1.457 c -1.048,-0.004 -1.845,-0.794 -1.859,-1.805 -0.015,-1.007 0.791,-1.84 1.803,-1.857 z m -3.584,-11.03 c 0.384,1.221 0.767,2.44 1.156,3.644 l -95.651,1.423 c -1.067,0.073 -1.842,-0.796 -1.856,-1.806 -0.015,-1.009 0.792,-1.839 1.803,-1.852 z m -3.371,-11.031 c 0.363,1.224 0.728,2.434 1.092,3.643 l -93.602,1.393 c -0.993,0.051 -1.844,-0.791 -1.859,-1.801 -0.014,-1.012 0.791,-1.841 1.802,-1.858 z m -3.175,-11.035 c 0.344,1.224 0.688,2.438 1.031,3.646 l -91.756,1.366 c -1.012,0.03 -1.843,-0.794 -1.856,-1.804 -0.016,-1.01 0.791,-1.841 1.803,-1.857 z m -3.005,-11.037 c 0.323,1.223 0.648,2.439 0.974,3.646 l -90.081,1.341 c -1.035,0.006 -1.843,-0.794 -1.857,-1.804 -0.015,-1.008 0.79,-1.84 1.801,-1.855 z m -92.017,-6.9 c -0.039,-0.609 -0.075,-1.222 -0.112,-1.831 0.301,-0.577 0.881,-0.991 1.578,-1.001 l 87.697,-1.306 c 0.308,1.219 0.615,2.436 0.926,3.643 l -88.568,1.32 c -0.668,-0.01 -1.198,-0.34 -1.521,-0.825 M 572.847,263.519 C 525.438,237.751 502.008,132.52 486.474,64.107 c -0.133,-0.579 -0.262,-1.144 -0.392,-1.715 -2.501,-12.558 -4.946,-25.772 -7.32,-39.708 0,0 -0.171,-4.08 -3.762,-4.602 -36.199,-3.259 -62.254,-1.317 -75.383,0.287 -6.32,0.777 -9.656,1.47 -9.656,1.47 -0.006,0.032 -0.01,0.076 -0.015,0.108 H 267.157 c -0.003,-0.032 -0.008,-0.076 -0.012,-0.108 0,0 -27.82,-5.828 -75.787,-2.492 -0.004,10e-4 -0.008,10e-4 -0.012,10e-4 h -0.005 c -3.003,0.209 -6.079,0.45 -9.237,0.734 -3.998,0.442 -5.41,4.602 -5.41,4.602 -2.832,16.633 -5.768,32.248 -8.781,46.923 -17.334,84.459 -37.224,137.109 -54.866,165.383 -6.473,9.684 -13.554,17.775 -21.331,23.666 -1.35,0.776 -2.669,1.387 -3.943,1.82 l 0.257,0.766 c -1.241,0.808 -2.494,1.58 -3.773,2.277 -6.232,3.387 95.332,286.486 94.015,290.436 0,0 91.58,29.249 109.931,31.448 0.912,0.11 1.645,0.153 2.175,0.121 0,0 -0.179,-0.172 -0.464,-0.473 -1.825,-1.922 -8.344,-9.501 -5.115,-16.716 1.52,-3.4 12.952,-9.22 16.824,-30.307 -36.876,-5.029 -81.651,0.023 -94.057,-44.545 -0.313,-10.814 -0.617,-21.233 -0.865,-29.72 14.323,45.46 58.894,50.836 100.579,51.825 0.414,10.42 -4.01,42.955 -18.556,52.654 -0.763,0.507 -1.677,1.52 -1.717,3.47 -0.07,3.472 3.035,9.283 7.397,14.755 0.324,0.408 0.656,0.814 0.994,1.219 2.73,3.249 5.858,6.306 8.988,8.582 3.71,2.7 5.41,4.428 6.656,5.692 2.365,2.405 3.394,3.226 9.3,4.496 l 0.385,0.04 h 13.904 v -0.034 l 2.133,-0.006 c 5.903,-1.27 6.933,-2.091 9.299,-4.496 1.243,-1.264 2.947,-2.992 6.657,-5.692 2.744,-1.997 5.493,-4.591 7.969,-7.393 0.58,-0.652 1.135,-1.319 1.68,-1.99 4.538,-5.593 7.803,-11.613 7.73,-15.173 -0.041,-1.95 -0.956,-2.963 -1.715,-3.47 -14.55,-9.699 -18.971,-42.234 -18.559,-52.654 41.683,-0.989 86.253,-6.365 100.575,-51.823 -0.246,8.486 -0.548,18.908 -0.864,29.72 -12.403,44.566 -57.178,39.514 -94.056,44.543 3.874,21.087 15.304,26.907 16.827,30.307 3.036,6.788 -2.563,13.91 -4.755,16.327 -0.501,0.555 -0.826,0.862 -0.826,0.862 0.377,0.023 0.864,0.004 1.439,-0.044 16.456,-1.437 110.668,-31.525 110.668,-31.525 -1.316,-3.95 100.246,-287.049 94.014,-290.436 m -189.866,84.298 -7.053,-2.633 c 0,0 -20.961,8.637 -47.374,9.194 -26.416,-0.557 -47.379,-9.194 -47.379,-9.194 l -0.034,0.014 c -2.413,-2.17 -3.864,-4.551 -3.257,-6.437 0.749,-2.329 -9.101,8.802 -1.506,10.411 h 0.002 c 8.838,5.262 41.086,24.032 46.193,20.883 2.614,-1.613 4.57,-2.981 5.981,-4.033 1.409,1.052 3.365,2.42 5.977,4.033 5.928,3.654 48.45,-22.238 48.45,-22.238" /></g></g></svg>